SplineFontDB: 3.0
FontName: FifteenTwenty-Demi
FullName: FifteenTwenty Demi
FamilyName: FifteenTwenty
Weight: Demi
Copyright: FifteenTwenty Demi\nMade in 2016 by Stewart C. Russell - scruss.com\nLicence: Dual-licensed CC0/WTFPL (srsly)
UComments: "Derived from character stroke coordinates from the Commodore 1520 plotter ROM. This has been documented here - http://e4aws.silverdr.com/hacks/6500_1/ - and here - https://github.com/Project-64/reloaded/tree/master/1520/rom+AAoACgAA-This font contains none of the original Commodore coordinates, as they were in a format unusable with current computer systems.+AAoACgAA-Coverage: ASCII"
Version: 001.000
ItalicAngle: 0
UnderlinePosition: -100
UnderlineWidth: 50
Ascent: 800
Descent: 200
InvalidEm: 0
LayerCount: 2
Layer: 0 0 "Back" 1
Layer: 1 0 "Fore" 0
XUID: [1021 355 -283255581 792078]
FSType: 0
OS2Version: 0
OS2_WeightWidthSlopeOnly: 0
OS2_UseTypoMetrics: 1
CreationTime: 1462803945
ModificationTime: 1462804149
PfmFamily: 17
TTFWeight: 600
TTFWidth: 5
LineGap: 90
VLineGap: 0
OS2TypoAscent: 0
OS2TypoAOffset: 1
OS2TypoDescent: 0
OS2TypoDOffset: 1
OS2TypoLinegap: 90
OS2WinAscent: 0
OS2WinAOffset: 1
OS2WinDescent: 0
OS2WinDOffset: 1
HheadAscent: 0
HheadAOffset: 1
HheadDescent: 0
HheadDOffset: 1
OS2Vendor: 'PfEd'
MarkAttachClasses: 1
DEI: 91125
Encoding: UnicodeFull
Compacted: 1
UnicodeInterp: none
NameList: AGL For New Fonts
DisplaySize: -48
AntiAlias: 1
FitToEm: 1
WinInfo: 0 17 10
BeginPrivate: 0
EndPrivate
BeginChars: 1114112 103

StartChar: exclam
Encoding: 33 33 0
Width: 576
VWidth: 214
Flags: W
HStem: 200 70<276 300> 293 70<276 300> 387 70<276 300> 759 70<276 300>
VStem: 206 70<270 293 457 759> 300 70<270 293 457 759>
LayerCount: 2
Back
Fore
SplineSet
242 829 m 1
 334 829 l 2
 353 829 370 813 370 794 c 2
 370 422 l 2
 370 403 353 387 334 387 c 2
 248 387 l 2
 246 387 244 386 242 386 c 0
 234 386 224 391 218 396 c 0
 216 397 l 0
 210 403 206 414 206 422 c 0
 206 424 206 425 206 427 c 2
 206 794 l 2
 206 813 223 829 242 829 c 1
276 759 m 1
 276 457 l 1
 300 457 l 1
 300 759 l 1
 276 759 l 1
242 363 m 0
 334 363 l 2
 353 363 370 347 370 328 c 2
 370 235 l 2
 370 216 353 200 334 200 c 2
 248 200 l 2
 246 200 244 200 242 200 c 0
 234 200 224 205 218 210 c 0
 216 211 l 0
 210 217 206 227 206 235 c 0
 206 237 206 239 206 241 c 2
 206 328 l 2
 206 347 223 363 242 363 c 0
276 293 m 1
 276 270 l 1
 300 270 l 1
 300 293 l 1
 276 293 l 1
EndSplineSet
EndChar

StartChar: quotedbl
Encoding: 34 34 1
Width: 576
VWidth: 214
Flags: W
HStem: 665 164<162.797 227.203 348.797 413.203>
VStem: 160 70<667.797 826.203> 346 70<667.797 826.203>
LayerCount: 2
Back
Fore
SplineSet
194 829 m 0
 195 829 l 0
 214 829 230 813 230 794 c 0
 230 701 l 2
 230 700 l 0
 230 681 214 665 195 665 c 0
 176 665 160 681 160 700 c 0
 160 701 l 2
 160 794 l 2
 160 813 175 829 194 829 c 0
381 829 m 0
 400 829 416 813 416 794 c 0
 416 701 l 2
 416 700 l 0
 416 681 400 665 381 665 c 0
 362 665 346 681 346 700 c 0
 346 701 l 2
 346 794 l 2
 346 813 362 829 381 829 c 0
EndSplineSet
EndChar

StartChar: numbersign
Encoding: 35 35 2
Width: 576
VWidth: 214
Flags: W
HStem: 387 70<68.9531 160 230 346 416 507.047> 573 70<68.9531 160 230 346 416 507.047>
VStem: 160 70<296.143 387 457 573 643 733.531> 346 70<296.143 387 457 573 643 732.857>
LayerCount: 2
Back
Fore
SplineSet
194 736 m 0
 196 736 l 0
 215 736 230 720 230 701 c 0
 230 643 l 1
 346 643 l 1
 346 701 l 2
 346 720 363 736 382 736 c 0
 401 736 416 720 416 701 c 0
 416 643 l 1
 474 643 l 2
 493 643 510 627 510 608 c 0
 510 589 493 573 474 573 c 0
 416 573 l 1
 416 457 l 1
 474 457 l 2
 493 457 510 441 510 422 c 0
 510 403 493 386 474 386 c 0
 474 387 l 2
 416 387 l 1
 416 328 l 2
 416 309 401 293 382 293 c 0
 363 293 346 309 346 328 c 0
 346 387 l 1
 230 387 l 1
 230 328 l 2
 230 309 215 293 196 293 c 0
 177 293 160 309 160 328 c 0
 160 387 l 1
 102 387 l 2
 102 386 l 0
 83 386 66 403 66 422 c 0
 66 441 83 457 102 457 c 0
 160 457 l 1
 160 573 l 1
 102 573 l 2
 83 573 66 589 66 608 c 0
 66 627 83 643 102 643 c 0
 160 643 l 1
 160 701 l 2
 160 720 175 736 194 736 c 0
230 573 m 1
 230 457 l 1
 346 457 l 1
 346 573 l 1
 230 573 l 1
EndSplineSet
EndChar

StartChar: dollar
Encoding: 36 36 3
Width: 576
VWidth: 214
Flags: W
HStem: 200 21G<278.5 297.5> 293 70<162.797 253 323 367> 480 70<210 253 323 367> 666 70<210 253 323 414.203> 809 20G<278.5 297.5>
VStem: 253 70<202.797 293 363 480 550 666 736 826.203>
LayerCount: 2
Back
Fore
SplineSet
288 829 m 0
 307 829 323 813 323 794 c 0
 323 736 l 1
 381 736 l 2
 382 736 l 0
 401 736 417 720 417 701 c 0
 417 682 401 666 382 666 c 0
 381 666 l 2
 323 666 l 1
 323 550 l 1
 381 550 l 2
 389 550 400 545 406 539 c 2
 499 446 l 2
 505 440 509 430 509 422 c 0
 509 414 505 403 499 397 c 2
 406 304 l 2
 400 298 389 293 381 293 c 2
 323 293 l 1
 323 235 l 2
 323 216 307 200 288 200 c 0
 269 200 253 216 253 235 c 0
 253 293 l 1
 195 293 l 2
 176 293 160 309 160 328 c 0
 160 347 176 363 195 363 c 0
 253 363 l 1
 253 480 l 1
 195 480 l 2
 187 480 176 484 170 490 c 2
 77 583 l 2
 71 589 67 600 67 608 c 0
 67 616 71 626 77 632 c 2
 170 725 l 2
 176 731 187 736 195 736 c 2
 253 736 l 1
 253 794 l 2
 253 813 269 829 288 829 c 0
210 666 m 1
 151 608 l 1
 210 550 l 1
 253 550 l 1
 253 666 l 1
 210 666 l 1
323 480 m 1
 323 363 l 1
 367 363 l 1
 425 422 l 1
 367 480 l 1
 323 480 l 1
EndSplineSet
EndChar

StartChar: percent
Encoding: 37 37 4
Width: 576
VWidth: 214
Flags: W
HStem: 293 70<416 438> 387 70<416 438> 573 70<136 160> 666 70<136 160>
VStem: 66 70<643 666> 160 70<643 666> 346 70<363 387> 438 70<363 387>
LayerCount: 2
Back
Fore
SplineSet
194 736 m 2
 202 736 214 732 220 726 c 0
 220 725 l 0
 226 719 230 709 230 701 c 0
 230 699 230 697 230 695 c 2
 230 608 l 2
 230 589 213 573 194 573 c 2
 102 573 l 2
 83 573 66 589 66 608 c 2
 66 701 l 2
 66 720 83 736 102 736 c 2
 190 736 l 2
 191 736 193 736 194 736 c 2
474 736 m 0
 493 736 510 720 510 701 c 0
 510 693 504 682 498 676 c 2
 126 304 l 2
 120 298 110 293 102 293 c 0
 83 293 66 309 66 328 c 0
 66 336 72 347 78 353 c 2
 450 725 l 2
 455 731 466 736 474 736 c 0
136 666 m 1
 136 643 l 1
 160 643 l 1
 160 666 l 1
 136 666 l 1
380 457 m 0
 382 457 384 457 386 457 c 2
 474 457 l 2
 493 457 508 441 508 422 c 2
 508 328 l 2
 508 309 493 293 474 293 c 2
 380 293 l 2
 361 293 346 309 346 328 c 2
 346 416 l 2
 346 418 346 420 346 422 c 0
 346 430 351 440 356 446 c 0
 356 447 l 0
 362 453 372 457 380 457 c 0
416 387 m 1
 416 363 l 1
 438 363 l 1
 438 387 l 1
 416 387 l 1
EndSplineSet
EndChar

StartChar: ampersand
Encoding: 38 38 5
Width: 576
VWidth: 214
Flags: W
HStem: 200 70<210 274> 809 20G<191 199>
VStem: 67 70<343 407 622 686> 253 70<622 686>
LayerCount: 2
Back
Fore
SplineSet
195 829 m 0
 203 829 214 824 220 818 c 2
 313 725 l 2
 319 719 323 709 323 701 c 2
 323 608 l 2
 323 600 319 589 313 583 c 2
 245 515 l 1
 381 378 l 1
 449 446 l 2
 455 452 466 457 474 457 c 0
 493 457 509 441 509 422 c 0
 509 414 505 403 499 397 c 2
 431 328 l 1
 499 260 l 2
 505 254 509 243 509 235 c 0
 509 216 493 200 474 200 c 0
 466 200 455 205 449 211 c 2
 381 279 l 1
 313 211 l 2
 307 205 296 200 288 200 c 2
 195 200 l 2
 187 200 176 205 170 211 c 2
 77 304 l 2
 71 310 67 320 67 328 c 2
 67 422 l 2
 67 430 71 440 77 446 c 2
 146 515 l 1
 77 583 l 2
 71 589 67 600 67 608 c 2
 67 701 l 2
 67 709 71 719 77 725 c 2
 170 818 l 2
 176 824 187 829 195 829 c 0
195 744 m 1
 137 686 l 1
 137 622 l 1
 195 564 l 1
 253 622 l 1
 253 686 l 1
 195 744 l 1
195 465 m 1
 137 407 l 1
 137 343 l 1
 210 270 l 1
 274 270 l 1
 332 328 l 1
 195 465 l 1
EndSplineSet
EndChar

StartChar: quotesingle
Encoding: 39 39 6
Width: 576
VWidth: 214
Flags: W
HStem: 572 257<255.797 320.203>
VStem: 253 70<574.797 826.203>
LayerCount: 2
Back
Fore
SplineSet
287 829 m 0
 288 829 l 0
 307 829 323 813 323 794 c 0
 323 608 l 2
 323 607 l 0
 323 588 307 572 288 572 c 0
 269 572 253 588 253 607 c 0
 253 608 l 2
 253 794 l 2
 253 813 268 829 287 829 c 0
EndSplineSet
EndChar

StartChar: parenleft
Encoding: 40 40 7
Width: 576
VWidth: 214
Flags: W
HStem: 200 70<302 413.359> 759 70<302 413.359>
VStem: 160 70<343 686>
LayerCount: 2
Back
Fore
SplineSet
288 829 m 0
 380 829 l 2
 382 829 l 0
 401 829 416 813 416 794 c 0
 416 775 401 759 382 759 c 0
 380 759 l 2
 302 759 l 1
 230 686 l 1
 230 343 l 1
 302 270 l 1
 380 270 l 2
 382 270 l 0
 401 270 416 254 416 235 c 0
 416 216 401 200 382 200 c 0
 380 200 l 2
 288 200 l 2
 280 200 268 205 262 211 c 2
 170 304 l 2
 164 310 160 320 160 328 c 2
 160 701 l 2
 160 709 164 719 170 725 c 2
 262 818 l 2
 268 824 280 829 288 829 c 0
EndSplineSet
EndChar

StartChar: parenright
Encoding: 41 41 8
Width: 576
VWidth: 214
Flags: W
HStem: 200 70<162.641 274> 759 70<162.641 274>
VStem: 346 70<343 686>
LayerCount: 2
Back
Fore
SplineSet
194 829 m 0
 288 829 l 2
 296 829 306 824 312 818 c 2
 406 725 l 2
 412 719 416 709 416 701 c 2
 416 328 l 2
 416 320 412 310 406 304 c 2
 312 211 l 2
 306 205 296 200 288 200 c 0
 194 200 l 2
 175 200 160 216 160 235 c 0
 160 254 175 270 194 270 c 0
 274 270 l 1
 346 343 l 1
 346 686 l 1
 274 759 l 1
 194 759 l 2
 175 759 160 775 160 794 c 0
 160 813 175 829 194 829 c 0
EndSplineSet
EndChar

StartChar: asterisk
Encoding: 42 42 9
Width: 576
VWidth: 214
Flags: W
VStem: 252 70<296.143 430 599 732.857>
LayerCount: 2
Back
Fore
SplineSet
288 736 m 0
 307 736 322 720 322 701 c 0
 322 599 l 1
 450 725 l 2
 456 731 466 736 474 736 c 0
 493 736 510 720 510 701 c 0
 510 693 504 682 498 676 c 2
 338 515 l 1
 498 353 l 2
 504 347 510 336 510 328 c 0
 510 309 493 293 474 293 c 0
 466 293 456 298 450 304 c 2
 322 430 l 1
 322 328 l 2
 322 309 307 293 288 293 c 0
 269 293 252 309 252 328 c 0
 252 430 l 1
 126 304 l 2
 120 298 110 293 102 293 c 0
 83 293 66 309 66 328 c 0
 66 336 72 347 78 353 c 2
 238 515 l 1
 78 676 l 2
 72 682 66 693 66 701 c 0
 66 720 83 736 102 736 c 0
 110 736 120 731 126 725 c 2
 252 599 l 1
 252 701 l 2
 252 720 269 736 288 736 c 0
EndSplineSet
EndChar

StartChar: plus
Encoding: 43 43 10
Width: 576
VWidth: 214
Flags: W
HStem: 480 70<68.9531 254 324 507.047>
VStem: 254 70<296.143 480 550 732.857>
LayerCount: 2
Back
Fore
SplineSet
288 736 m 0
 307 736 324 720 324 701 c 0
 324 550 l 1
 474 550 l 2
 493 550 510 534 510 515 c 0
 510 496 493 480 474 480 c 0
 324 480 l 1
 324 328 l 2
 324 309 307 293 288 293 c 0
 269 293 254 309 254 328 c 0
 254 480 l 1
 102 480 l 2
 83 480 66 496 66 515 c 0
 66 534 83 550 102 550 c 0
 254 550 l 1
 254 701 l 2
 254 720 269 736 288 736 c 0
EndSplineSet
EndChar

StartChar: comma
Encoding: 44 44 11
Width: 576
VWidth: 214
Flags: W
HStem: 107 21G<231.5 245> 293 70<276 299>
VStem: 206 70<270 293> 299 70<270 293>
LayerCount: 2
Back
Fore
SplineSet
241 363 m 2
 334 363 l 2
 353 363 369 347 369 328 c 2
 369 241 l 2
 369 239 370 237 370 235 c 0
 370 225 364 214 356 208 c 2
 266 118 l 2
 260 112 249 107 241 107 c 0
 222 107 206 123 206 142 c 0
 206 150 211 161 217 167 c 2
 250 200 l 1
 241 200 l 2
 222 200 206 216 206 235 c 2
 206 328 l 2
 206 347 222 363 241 363 c 2
276 293 m 1
 276 270 l 1
 299 270 l 1
 299 293 l 1
 276 293 l 1
EndSplineSet
EndChar

StartChar: hyphen
Encoding: 45 45 12
Width: 576
VWidth: 214
Flags: W
HStem: 480 70<68.9531 507.047>
LayerCount: 2
Back
Fore
SplineSet
102 550 m 0
 474 550 l 2
 493 550 510 534 510 515 c 0
 510 496 493 480 474 480 c 0
 102 480 l 2
 83 480 66 496 66 515 c 0
 66 534 83 550 102 550 c 0
EndSplineSet
EndChar

StartChar: period
Encoding: 46 46 13
Width: 576
VWidth: 214
Flags: W
HStem: 200 70<276 300> 293 70<276 300>
VStem: 206 70<270 293> 300 70<270 293>
LayerCount: 2
Back
Fore
SplineSet
242 363 m 0
 334 363 l 2
 353 363 370 347 370 328 c 2
 370 235 l 2
 370 216 353 200 334 200 c 2
 248 200 l 2
 246 200 244 200 242 200 c 0
 234 200 224 205 218 210 c 0
 216 211 l 0
 210 217 206 227 206 235 c 0
 206 237 206 239 206 241 c 2
 206 328 l 2
 206 347 223 363 242 363 c 0
276 293 m 1
 276 270 l 1
 300 270 l 1
 300 293 l 1
 276 293 l 1
EndSplineSet
EndChar

StartChar: slash
Encoding: 47 47 14
Width: 576
VWidth: 214
Flags: W
HStem: 200 21G<45.5 59>
LayerCount: 2
Back
Fore
SplineSet
520 736 m 0
 521 736 l 0
 540 736 556 720 556 701 c 0
 556 693 551 682 545 676 c 2
 80 211 l 2
 74 205 63 200 55 200 c 0
 36 200 20 216 20 235 c 0
 20 243 25 254 31 260 c 2
 496 725 l 2
 501 731 512 736 520 736 c 0
EndSplineSet
EndChar

StartChar: zero
Encoding: 48 48 15
Width: 576
VWidth: 214
Flags: W
HStem: 200 70<210 367> 759 70<210 367>
VStem: 67 70<413 686> 439 70<343 616>
LayerCount: 2
Back
Fore
SplineSet
195 829 m 0
 381 829 l 2
 389 829 400 824 406 818 c 2
 496 729 l 2
 503 723 509 711 509 702 c 0
 509 701 l 0
 509 328 l 2
 509 320 505 310 499 304 c 2
 406 211 l 2
 400 205 389 200 381 200 c 0
 195 200 l 2
 187 200 177 205 171 211 c 2
 82 300 l 2
 74 306 67 318 67 328 c 0
 67 329 67 332 67 333 c 2
 67 701 l 2
 67 709 72 719 78 725 c 2
 171 818 l 2
 177 824 187 829 195 829 c 0
210 759 m 1
 137 686 l 1
 137 413 l 1
 425 701 l 1
 367 759 l 1
 210 759 l 1
439 616 m 1
 152 328 l 1
 210 270 l 1
 367 270 l 1
 439 343 l 1
 439 616 l 1
EndSplineSet
EndChar

StartChar: one
Encoding: 49 49 16
Width: 576
VWidth: 214
Flags: W
HStem: 200 70<162.641 254 324 413.359> 809 20G<282 297.5>
VStem: 254 70<270 709>
LayerCount: 2
Back
Fore
SplineSet
286 829 m 0
 288 829 l 0
 307 829 324 813 324 794 c 2
 324 270 l 1
 382 270 l 2
 401 270 416 254 416 235 c 0
 416 216 401 200 382 200 c 0
 294 200 l 2
 292 200 290 200 288 200 c 0
 286 200 284 200 282 200 c 2
 194 200 l 2
 175 200 160 216 160 235 c 0
 160 254 175 270 194 270 c 0
 254 270 l 1
 254 709 l 1
 220 676 l 2
 214 670 202 665 194 665 c 0
 175 665 160 681 160 700 c 0
 160 708 164 719 170 725 c 2
 264 818 l 2
 269 823 278 829 286 829 c 0
EndSplineSet
EndChar

StartChar: two
Encoding: 50 50 17
Width: 576
VWidth: 214
Flags: W
HStem: 200 70<186 507.047> 759 70<210 366>
VStem: 438 70<622 686>
LayerCount: 2
Back
Fore
SplineSet
194 829 m 2
 380 829 l 2
 388 829 400 824 406 818 c 2
 498 725 l 2
 504 719 508 709 508 701 c 2
 508 608 l 2
 508 600 504 589 498 583 c 2
 186 270 l 1
 474 270 l 2
 493 270 510 254 510 235 c 0
 510 216 493 200 474 200 c 0
 102 200 l 2
 83 200 66 216 66 235 c 0
 66 243 72 254 78 260 c 2
 438 622 l 1
 438 686 l 1
 366 759 l 1
 210 759 l 1
 126 676 l 2
 120 670 110 665 102 665 c 0
 83 665 66 681 66 700 c 0
 66 708 72 719 78 725 c 2
 170 818 l 2
 176 824 186 829 194 829 c 2
EndSplineSet
EndChar

StartChar: three
Encoding: 51 51 18
Width: 576
VWidth: 214
Flags: W
HStem: 200 70<210 367> 480 70<255.797 367> 759 70<210 367>
VStem: 439 70<343 407 622 686>
LayerCount: 2
Back
Fore
SplineSet
195 829 m 2
 381 829 l 2
 389 829 400 824 406 818 c 2
 499 725 l 2
 505 719 509 709 509 701 c 2
 509 608 l 2
 509 600 505 589 499 583 c 2
 431 515 l 1
 499 446 l 2
 505 440 509 430 509 422 c 2
 509 328 l 2
 509 320 505 310 499 304 c 2
 406 211 l 2
 400 205 389 200 381 200 c 0
 195 200 l 2
 187 200 177 205 171 211 c 2
 78 304 l 2
 72 310 67 321 67 329 c 0
 67 348 83 364 102 364 c 0
 110 364 121 359 127 353 c 2
 210 270 l 1
 367 270 l 1
 439 343 l 1
 439 407 l 1
 367 480 l 1
 288 480 l 2
 269 480 253 496 253 515 c 0
 253 534 269 550 288 550 c 0
 367 550 l 1
 439 622 l 1
 439 686 l 1
 367 759 l 1
 210 759 l 1
 127 676 l 2
 121 670 110 665 102 665 c 0
 83 665 67 681 67 700 c 0
 67 708 72 719 78 725 c 2
 171 818 l 2
 177 824 187 829 195 829 c 2
EndSplineSet
EndChar

StartChar: four
Encoding: 52 52 19
Width: 576
VWidth: 214
Flags: W
HStem: 200 21G<370.5 389.5> 387 70<136 346 416 507.047> 809 20G<376 389.5>
VStem: 66 70<457 500> 346 70<203.143 387 457 709>
LayerCount: 2
Back
Fore
SplineSet
380 829 m 0
 399 829 416 813 416 794 c 2
 416 457 l 1
 474 457 l 2
 493 457 510 441 510 422 c 0
 510 403 493 386 474 386 c 0
 474 387 l 2
 416 387 l 1
 416 235 l 2
 416 216 399 200 380 200 c 0
 361 200 346 216 346 235 c 0
 346 387 l 1
 102 387 l 2
 83 387 66 403 66 422 c 2
 66 515 l 2
 66 523 70 533 76 539 c 2
 356 818 l 2
 361 823 372 829 380 829 c 0
346 709 m 1
 136 500 l 1
 136 457 l 1
 346 457 l 1
 346 709 l 1
EndSplineSet
EndChar

StartChar: five
Encoding: 53 53 20
Width: 576
VWidth: 214
Flags: W
HStem: 200 70<210 366> 573 70<136 366> 759 70<136 507.047>
VStem: 66 70<643 759> 438 70<343 500>
LayerCount: 2
Back
Fore
SplineSet
102 829 m 0
 474 829 l 2
 493 829 510 813 510 794 c 0
 510 775 493 759 474 759 c 0
 136 759 l 1
 136 643 l 1
 380 643 l 2
 388 643 400 638 406 632 c 2
 498 539 l 2
 504 533 508 523 508 515 c 2
 508 328 l 2
 508 320 504 310 498 304 c 2
 406 211 l 2
 400 205 388 200 380 200 c 0
 194 200 l 2
 186 200 176 205 170 211 c 2
 78 304 l 2
 72 310 66 321 66 329 c 0
 66 348 83 364 102 364 c 0
 110 364 120 359 126 353 c 2
 210 270 l 1
 366 270 l 1
 438 343 l 1
 438 500 l 1
 366 573 l 1
 102 573 l 2
 83 573 66 589 66 608 c 2
 66 794 l 2
 66 813 83 829 102 829 c 0
EndSplineSet
EndChar

StartChar: six
Encoding: 54 54 21
Width: 576
VWidth: 214
Flags: W
HStem: 200 70<210 366> 573 70<210 366> 759 70<210 366>
VStem: 66 70<343 500 599 686> 438 70<343 500>
LayerCount: 2
Back
Fore
SplineSet
194 829 m 2
 380 829 l 2
 388 829 400 824 406 818 c 2
 498 725 l 2
 504 719 510 708 510 700 c 0
 510 681 493 665 474 665 c 0
 466 665 456 670 450 676 c 2
 366 759 l 1
 210 759 l 1
 136 686 l 1
 136 599 l 1
 170 632 l 2
 176 638 186 643 194 643 c 0
 380 643 l 2
 388 643 400 638 406 632 c 2
 498 539 l 2
 504 533 508 523 508 515 c 2
 508 328 l 2
 508 320 504 310 498 304 c 2
 406 211 l 2
 400 205 388 200 380 200 c 0
 194 200 l 2
 186 200 176 205 170 211 c 2
 78 304 l 2
 72 310 66 320 66 328 c 2
 66 509 l 2
 66 510 66 513 66 514 c 0
 66 515 66 518 66 519 c 2
 66 701 l 2
 66 709 72 719 78 725 c 2
 170 818 l 2
 176 824 186 829 194 829 c 2
210 573 m 1
 136 500 l 1
 136 343 l 1
 210 270 l 1
 366 270 l 1
 438 343 l 1
 438 500 l 1
 366 573 l 1
 210 573 l 1
EndSplineSet
EndChar

StartChar: seven
Encoding: 55 55 22
Width: 576
VWidth: 214
Flags: W
HStem: 200 21G<92.5 106> 759 70<68.9531 440>
VStem: 440 70<622 759>
LayerCount: 2
Back
Fore
SplineSet
102 829 m 0
 474 829 l 2
 493 829 510 813 510 794 c 2
 510 608 l 2
 510 600 504 589 498 583 c 2
 126 211 l 2
 120 205 110 200 102 200 c 0
 83 200 66 216 66 235 c 0
 66 243 72 254 78 260 c 2
 440 622 l 1
 440 759 l 1
 102 759 l 2
 83 759 66 775 66 794 c 0
 66 813 83 829 102 829 c 0
EndSplineSet
EndChar

StartChar: eight
Encoding: 56 56 23
Width: 576
VWidth: 214
Flags: W
HStem: 200 70<210 367> 480 70<210 367> 759 70<210 367>
VStem: 67 70<343 407 622 686> 439 70<343 407 622 686>
LayerCount: 2
Back
Fore
SplineSet
195 829 m 2
 381 829 l 2
 389 829 400 824 406 818 c 2
 499 725 l 2
 505 719 509 709 509 701 c 2
 509 608 l 2
 509 600 505 589 499 583 c 2
 431 515 l 1
 499 446 l 2
 505 440 509 430 509 422 c 2
 509 328 l 2
 509 320 505 310 499 304 c 2
 406 211 l 2
 400 205 389 200 381 200 c 0
 195 200 l 2
 187 200 176 205 170 211 c 2
 77 304 l 2
 71 310 67 320 67 328 c 2
 67 422 l 2
 67 430 71 440 77 446 c 2
 146 515 l 1
 77 583 l 2
 71 589 67 600 67 608 c 2
 67 701 l 2
 67 709 71 719 77 725 c 2
 170 818 l 2
 176 824 187 829 195 829 c 2
210 759 m 1
 137 686 l 1
 137 622 l 1
 210 550 l 1
 367 550 l 1
 439 622 l 1
 439 686 l 1
 367 759 l 1
 210 759 l 1
210 480 m 1
 137 407 l 1
 137 343 l 1
 210 270 l 1
 367 270 l 1
 439 343 l 1
 439 407 l 1
 367 480 l 1
 210 480 l 1
EndSplineSet
EndChar

StartChar: nine
Encoding: 57 57 24
Width: 576
VWidth: 214
Flags: W
HStem: 200 70<210 366> 480 70<210 366> 759 70<210 366>
VStem: 66 70<622 686> 438 70<343 523 622 686>
LayerCount: 2
Back
Fore
SplineSet
194 829 m 2
 380 829 l 2
 388 829 400 824 406 818 c 2
 498 725 l 2
 504 719 508 709 508 701 c 2
 508 613 l 2
 508 612 510 609 510 608 c 0
 510 607 508 604 508 603 c 2
 508 328 l 2
 508 320 504 310 498 304 c 2
 406 211 l 2
 400 205 388 200 380 200 c 0
 194 200 l 2
 186 200 176 205 170 211 c 2
 78 304 l 2
 72 310 66 321 66 329 c 0
 66 348 83 364 102 364 c 0
 110 364 120 359 126 353 c 2
 210 270 l 1
 366 270 l 1
 438 343 l 1
 438 523 l 1
 406 490 l 2
 400 484 388 480 380 480 c 0
 194 480 l 2
 186 480 176 484 170 490 c 2
 78 583 l 2
 72 589 66 600 66 608 c 2
 66 701 l 2
 66 709 72 719 78 725 c 2
 170 818 l 2
 176 824 186 829 194 829 c 2
210 759 m 1
 136 686 l 1
 136 622 l 1
 210 550 l 1
 366 550 l 1
 438 622 l 1
 438 686 l 1
 366 759 l 1
 210 759 l 1
EndSplineSet
EndChar

StartChar: colon
Encoding: 58 58 25
Width: 576
VWidth: 214
Flags: W
HStem: 293 70<276 300> 387 70<276 300> 573 70<276 300> 666 70<276 300>
VStem: 206 70<363 387 643 666> 300 70<363 387 643 666>
LayerCount: 2
Back
Fore
SplineSet
242 736 m 0
 334 736 l 2
 353 736 370 720 370 701 c 2
 370 608 l 2
 370 589 353 573 334 573 c 2
 248 573 l 2
 246 573 244 572 242 572 c 0
 234 572 224 577 218 582 c 0
 216 583 l 0
 210 589 206 600 206 608 c 0
 206 610 206 611 206 613 c 2
 206 701 l 2
 206 720 223 736 242 736 c 0
276 666 m 1
 276 643 l 1
 300 643 l 1
 300 666 l 1
 276 666 l 1
242 457 m 0
 334 457 l 2
 353 457 370 441 370 422 c 2
 370 328 l 2
 370 309 353 293 334 293 c 2
 248 293 l 2
 246 293 244 293 242 293 c 0
 234 293 224 298 218 303 c 0
 216 304 l 0
 210 310 206 320 206 328 c 0
 206 330 206 332 206 334 c 2
 206 422 l 2
 206 441 223 457 242 457 c 0
276 387 m 1
 276 363 l 1
 300 363 l 1
 300 387 l 1
 276 387 l 1
EndSplineSet
EndChar

StartChar: semicolon
Encoding: 59 59 26
Width: 576
VWidth: 214
Flags: W
HStem: 200 21G<231.5 245> 387 70<276 299> 573 70<276 299> 666 70<276 299>
VStem: 206 70<363 387 643 666> 299 70<363 387 643 666>
LayerCount: 2
Back
Fore
SplineSet
241 736 m 2
 334 736 l 2
 353 736 369 720 369 701 c 2
 369 613 l 2
 369 611 370 610 370 608 c 0
 370 600 366 589 360 583 c 0
 359 582 l 0
 353 576 342 572 334 572 c 0
 332 572 331 573 329 573 c 2
 241 573 l 2
 222 573 206 589 206 608 c 2
 206 701 l 2
 206 720 222 736 241 736 c 2
276 666 m 1
 276 643 l 1
 299 643 l 1
 299 666 l 1
 276 666 l 1
241 457 m 1
 334 457 l 2
 353 457 369 441 369 422 c 2
 369 334 l 2
 369 332 370 330 370 328 c 0
 370 318 364 307 356 301 c 2
 266 211 l 2
 260 205 249 200 241 200 c 0
 222 200 206 216 206 235 c 0
 206 243 211 254 217 260 c 2
 250 293 l 1
 241 293 l 2
 222 293 206 309 206 328 c 2
 206 422 l 2
 206 441 222 457 241 457 c 1
276 387 m 1
 276 363 l 1
 299 363 l 1
 299 387 l 1
 276 387 l 1
EndSplineSet
EndChar

StartChar: less
Encoding: 60 60 27
Width: 576
VWidth: 214
Flags: W
HStem: 200 21G<424 437.5> 809 20G<422 437.5>
LayerCount: 2
Back
Fore
SplineSet
426 829 m 0
 428 829 l 0
 447 829 462 813 462 794 c 0
 462 786 458 775 452 769 c 2
 198 515 l 1
 452 260 l 2
 458 254 462 243 462 235 c 0
 462 216 447 200 428 200 c 0
 420 200 408 205 402 211 c 2
 124 490 l 2
 118 496 114 507 114 515 c 0
 114 523 118 533 124 539 c 2
 402 818 l 2
 407 824 418 829 426 829 c 0
EndSplineSet
EndChar

StartChar: equal
Encoding: 61 61 28
Width: 576
VWidth: 214
Flags: W
HStem: 387 70<115.797 460.203> 573 70<115.797 460.203>
LayerCount: 2
Back
Fore
SplineSet
148 643 m 0
 428 643 l 2
 447 643 463 627 463 608 c 0
 463 589 447 573 428 573 c 0
 148 573 l 2
 129 573 113 589 113 608 c 0
 113 627 129 643 148 643 c 0
148 457 m 0
 428 457 l 2
 447 457 463 441 463 422 c 0
 463 403 447 386 428 386 c 0
 428 387 l 2
 148 387 l 2
 148 386 l 0
 129 386 113 403 113 422 c 0
 113 441 129 457 148 457 c 0
EndSplineSet
EndChar

StartChar: greater
Encoding: 62 62 29
Width: 576
VWidth: 214
Flags: W
HStem: 200 21G<138.5 152> 809 20G<138.5 152>
LayerCount: 2
Back
Fore
SplineSet
148 829 m 0
 156 829 168 824 174 818 c 2
 452 539 l 2
 458 533 462 523 462 515 c 0
 462 507 458 496 452 490 c 2
 174 211 l 2
 168 205 156 200 148 200 c 0
 129 200 114 216 114 235 c 0
 114 243 118 254 124 260 c 2
 378 515 l 1
 124 769 l 2
 118 775 114 786 114 794 c 0
 114 813 129 829 148 829 c 0
EndSplineSet
EndChar

StartChar: question
Encoding: 63 63 30
Width: 576
VWidth: 214
Flags: W
HStem: 200 164<255.797 320.203> 386 164<255.797 320.203> 480 70<323 367> 759 70<210 367>
VStem: 253 70<202.797 361.203 388.797 480> 439 70<622 686>
LayerCount: 2
Back
Fore
SplineSet
195 829 m 2xbc
 381 829 l 2
 389 829 400 824 406 818 c 2
 499 725 l 2
 505 719 509 709 509 701 c 2
 509 608 l 2
 509 600 505 589 499 583 c 2
 406 490 l 2
 400 484 389 480 381 480 c 0
 323 480 l 1xbc
 323 422 l 2
 323 421 l 0
 323 402 307 386 288 386 c 0
 269 386 253 402 253 421 c 0
 253 422 l 2
 253 515 l 2
 253 534 269 550 288 550 c 2xdc
 367 550 l 1
 439 622 l 1
 439 686 l 1
 367 759 l 1
 210 759 l 1
 127 676 l 2
 121 670 110 665 102 665 c 0
 83 665 67 681 67 700 c 0
 67 708 72 719 78 725 c 2
 171 818 l 2
 177 824 187 829 195 829 c 2xbc
288 364 m 0
 307 364 323 348 323 329 c 0
 323 328 l 2
 323 235 l 2
 323 216 307 200 288 200 c 0
 269 200 253 216 253 235 c 0
 253 328 l 2
 253 329 l 0
 253 348 269 364 288 364 c 0
EndSplineSet
EndChar

StartChar: at
Encoding: 64 64 31
Width: 576
VWidth: 214
Flags: W
HStem: 200 70<210 507.047> 293 70<230 366> 573 70<230 346> 666 70<210 366>
VStem: 66 70<343 593> 160 70<363 573> 346 70<412.363 573> 438 70<436 593>
LayerCount: 2
Back
Fore
SplineSet
194 736 m 0
 380 736 l 2
 388 736 400 731 406 725 c 2
 498 632 l 2
 504 626 508 616 508 608 c 2
 508 422 l 2
 508 414 504 403 498 397 c 2
 406 304 l 2
 400 298 388 293 380 293 c 2
 194 293 l 2
 191 293 187 294 184 295 c 2
 210 270 l 1
 474 270 l 2
 493 270 510 254 510 235 c 0
 510 216 493 200 474 200 c 0
 194 200 l 2
 186 200 176 205 170 211 c 2
 76 304 l 2
 70 310 66 320 66 328 c 2
 66 608 l 2
 66 616 70 626 76 632 c 2
 170 725 l 2
 176 731 186 736 194 736 c 0
210 666 m 1
 184 641 l 2
 187 642 191 643 194 643 c 2
 380 643 l 2
 383 643 387 642 390 641 c 2
 366 666 l 1
 210 666 l 1
162 618 m 1
 136 593 l 1
 136 343 l 1
 160 318 l 2
 159 321 160 325 160 328 c 2
 160 608 l 2
 160 611 161 615 162 618 c 1
414 618 m 2
 415 615 416 611 416 608 c 2
 416 422 l 2
 416 421 l 0
 416 418 415 415 414 412 c 2
 438 436 l 1
 438 593 l 1
 414 618 l 2
230 573 m 1
 230 363 l 1
 366 363 l 1
 390 387 l 2
 387 386 383 386 380 386 c 0
 361 386 346 402 346 421 c 0
 346 422 l 2
 346 573 l 1
 230 573 l 1
EndSplineSet
EndChar

StartChar: A
Encoding: 65 65 32
Width: 576
VWidth: 214
Flags: W
HStem: 200 21G<92.5 111.5 464.5 483.5> 480 70<136 440> 809 20G<284 292>
VStem: 66 70<203.143 480 550 593> 440 70<203.143 480 550 593>
LayerCount: 2
Back
Fore
SplineSet
288 829 m 0
 296 829 306 824 312 818 c 2
 498 632 l 2
 504 626 510 616 510 608 c 2
 510 520 l 2
 510 518 510 516 510 514 c 0
 510 512 510 511 510 509 c 2
 510 235 l 2
 510 216 493 200 474 200 c 0
 455 200 440 216 440 235 c 0
 440 480 l 1
 136 480 l 1
 136 235 l 2
 136 216 121 200 102 200 c 0
 83 200 66 216 66 235 c 0
 66 509 l 2
 66 511 66 513 66 515 c 0
 66 517 66 518 66 520 c 2
 66 608 l 2
 66 616 72 626 78 632 c 2
 264 818 l 2
 270 824 280 829 288 829 c 0
288 744 m 1
 136 593 l 1
 136 550 l 1
 440 550 l 1
 440 593 l 1
 288 744 l 1
EndSplineSet
EndChar

StartChar: B
Encoding: 66 66 33
Width: 576
VWidth: 214
Flags: W
HStem: 200 70<136 366> 480 70<136 366> 759 70<136 366>
VStem: 66 70<270 480 550 759> 440 70<343 407 622 686>
LayerCount: 2
Back
Fore
SplineSet
102 829 m 2
 382 829 l 2
 390 829 400 824 406 818 c 2
 498 725 l 2
 504 719 510 709 510 701 c 2
 510 608 l 2
 510 600 504 589 498 583 c 2
 430 515 l 1
 498 446 l 2
 504 440 510 430 510 422 c 2
 510 328 l 2
 510 320 504 310 498 304 c 2
 406 211 l 2
 400 205 390 200 382 200 c 0
 108 200 l 2
 106 200 104 200 102 200 c 0
 94 200 84 205 78 210 c 0
 76 211 l 0
 70 217 66 227 66 235 c 0
 66 237 66 239 66 241 c 2
 66 509 l 2
 66 511 66 513 66 515 c 0
 66 517 66 518 66 520 c 2
 66 794 l 2
 66 813 83 829 102 829 c 2
136 759 m 1
 136 550 l 1
 366 550 l 1
 440 622 l 1
 440 686 l 1
 366 759 l 1
 136 759 l 1
136 480 m 1
 136 270 l 1
 366 270 l 1
 440 343 l 1
 440 407 l 1
 366 480 l 1
 136 480 l 1
EndSplineSet
EndChar

StartChar: C
Encoding: 67 67 34
Width: 576
VWidth: 214
Flags: W
HStem: 200 70<210 367> 759 70<210 367>
VStem: 67 70<343 686>
LayerCount: 2
Back
Fore
SplineSet
195 829 m 2
 381 829 l 2
 389 829 400 824 406 818 c 2
 499 725 l 2
 505 719 509 708 509 700 c 0
 509 681 493 665 474 665 c 0
 466 665 455 670 449 676 c 2
 367 759 l 1
 210 759 l 1
 137 686 l 1
 137 343 l 1
 210 270 l 1
 367 270 l 1
 449 353 l 2
 455 359 466 364 474 364 c 0
 493 364 509 348 509 329 c 0
 509 321 505 310 499 304 c 2
 406 211 l 2
 400 205 389 200 381 200 c 0
 195 200 l 2
 187 200 176 205 170 211 c 2
 77 304 l 2
 71 310 67 320 67 328 c 2
 67 701 l 2
 67 709 71 719 77 725 c 2
 170 818 l 2
 176 824 187 829 195 829 c 2
EndSplineSet
EndChar

StartChar: D
Encoding: 68 68 35
Width: 576
VWidth: 214
Flags: W
HStem: 200 70<136 366> 759 70<136 366>
VStem: 66 70<270 759> 440 70<343 686>
LayerCount: 2
Back
Fore
SplineSet
102 829 m 2
 382 829 l 2
 390 829 400 824 406 818 c 2
 498 725 l 2
 504 719 510 709 510 701 c 2
 510 328 l 2
 510 320 504 310 498 304 c 2
 406 211 l 2
 400 205 390 200 382 200 c 0
 108 200 l 2
 106 200 104 200 102 200 c 0
 94 200 84 205 78 210 c 0
 76 211 l 0
 70 217 66 227 66 235 c 0
 66 237 66 239 66 241 c 2
 66 794 l 2
 66 813 83 829 102 829 c 2
136 759 m 1
 136 270 l 1
 366 270 l 1
 440 343 l 1
 440 686 l 1
 366 759 l 1
 136 759 l 1
EndSplineSet
EndChar

StartChar: E
Encoding: 69 69 36
Width: 576
VWidth: 214
Flags: W
HStem: 200 70<136 507.047> 480 70<136 413.359> 759 70<136 507.047>
VStem: 66 70<270 480 550 759>
LayerCount: 2
Back
Fore
SplineSet
102 829 m 1
 474 829 l 2
 493 829 510 813 510 794 c 0
 510 775 493 759 474 759 c 0
 136 759 l 1
 136 550 l 1
 382 550 l 2
 401 550 416 534 416 515 c 0
 416 496 401 480 382 480 c 0
 136 480 l 1
 136 270 l 1
 474 270 l 2
 493 270 510 254 510 235 c 0
 510 216 493 200 474 200 c 0
 102 200 l 2
 83 200 66 216 66 235 c 2
 66 509 l 2
 66 511 66 513 66 515 c 0
 66 517 66 518 66 520 c 2
 66 794 l 2
 66 813 83 829 102 829 c 1
EndSplineSet
EndChar

StartChar: F
Encoding: 70 70 37
Width: 576
VWidth: 214
Flags: W
HStem: 200 21G<92.5 111.5> 480 70<136 413.359> 759 70<136 507.047>
VStem: 66 70<203.143 480 550 759>
LayerCount: 2
Back
Fore
SplineSet
102 829 m 1
 474 829 l 2
 493 829 510 813 510 794 c 0
 510 775 493 759 474 759 c 0
 136 759 l 1
 136 550 l 1
 382 550 l 2
 401 550 416 534 416 515 c 0
 416 496 401 480 382 480 c 0
 136 480 l 1
 136 235 l 2
 136 216 121 200 102 200 c 0
 83 200 66 216 66 235 c 0
 66 509 l 2
 66 511 66 513 66 515 c 0
 66 517 66 518 66 520 c 2
 66 794 l 2
 66 813 83 829 102 829 c 1
EndSplineSet
EndChar

StartChar: G
Encoding: 71 71 38
Width: 576
VWidth: 214
Flags: W
HStem: 200 70<210 439> 480 70<255.797 439> 759 70<210 367>
VStem: 67 70<343 686> 439 70<270 480>
LayerCount: 2
Back
Fore
SplineSet
195 829 m 2
 381 829 l 2
 389 829 400 824 406 818 c 2
 499 725 l 2
 505 719 509 708 509 700 c 0
 509 681 493 665 474 665 c 0
 466 665 455 670 449 676 c 2
 367 759 l 1
 210 759 l 1
 137 686 l 1
 137 343 l 1
 210 270 l 1
 439 270 l 1
 439 480 l 1
 288 480 l 2
 269 480 253 496 253 515 c 0
 253 534 269 550 288 550 c 0
 474 550 l 2
 493 550 509 534 509 515 c 2
 509 235 l 2
 509 216 493 200 474 200 c 2
 195 200 l 2
 187 200 176 205 170 211 c 2
 77 304 l 2
 71 310 67 320 67 328 c 2
 67 701 l 2
 67 709 71 719 77 725 c 2
 170 818 l 2
 176 824 187 829 195 829 c 2
EndSplineSet
EndChar

StartChar: H
Encoding: 72 72 39
Width: 576
VWidth: 214
Flags: W
HStem: 200 21G<92.5 111.5 464.5 483.5> 480 70<136 440> 809 20G<92.5 111.5 464.5 483.5>
VStem: 66 70<203.143 480 550 825.857> 440 70<203.143 480 550 825.857>
LayerCount: 2
Back
Fore
SplineSet
102 829 m 0
 121 829 136 813 136 794 c 0
 136 550 l 1
 440 550 l 1
 440 794 l 2
 440 813 455 829 474 829 c 0
 493 829 510 813 510 794 c 0
 510 520 l 2
 510 518 510 516 510 514 c 0
 510 512 510 511 510 509 c 2
 510 235 l 2
 510 216 493 200 474 200 c 0
 455 200 440 216 440 235 c 0
 440 480 l 1
 136 480 l 1
 136 235 l 2
 136 216 121 200 102 200 c 0
 83 200 66 216 66 235 c 0
 66 509 l 2
 66 511 66 513 66 515 c 0
 66 517 66 518 66 520 c 2
 66 794 l 2
 66 813 83 829 102 829 c 0
EndSplineSet
EndChar

StartChar: I
Encoding: 73 73 40
Width: 576
VWidth: 214
Flags: W
HStem: 200 70<162.641 254 324 413.359> 759 70<162.641 254 324 413.359>
VStem: 254 70<270 759>
LayerCount: 2
Back
Fore
SplineSet
288 829 m 0
 290 829 292 829 294 829 c 2
 382 829 l 2
 401 829 416 813 416 794 c 0
 416 775 401 759 382 759 c 0
 324 759 l 1
 324 270 l 1
 382 270 l 2
 401 270 416 254 416 235 c 0
 416 216 401 200 382 200 c 0
 294 200 l 2
 292 200 290 200 288 200 c 0
 286 200 284 200 282 200 c 2
 194 200 l 2
 175 200 160 216 160 235 c 0
 160 254 175 270 194 270 c 0
 254 270 l 1
 254 759 l 1
 194 759 l 2
 175 759 160 775 160 794 c 0
 160 813 175 829 194 829 c 0
 282 829 l 2
 283 829 287 829 288 829 c 0
EndSplineSet
EndChar

StartChar: J
Encoding: 74 74 41
Width: 576
VWidth: 214
Flags: W
HStem: 200 70<256 320> 809 20G<418.5 437.5>
VStem: 392 70<343 825.857>
LayerCount: 2
Back
Fore
SplineSet
428 829 m 0
 447 829 462 813 462 794 c 0
 462 328 l 2
 462 320 458 310 452 304 c 2
 360 211 l 2
 354 205 342 200 334 200 c 2
 242 200 l 2
 234 200 224 205 218 211 c 2
 124 304 l 2
 118 310 114 321 114 329 c 0
 114 348 129 364 148 364 c 0
 156 364 168 359 174 353 c 2
 256 270 l 1
 320 270 l 1
 392 343 l 1
 392 794 l 2
 392 813 409 829 428 829 c 0
EndSplineSet
EndChar

StartChar: K
Encoding: 75 75 42
Width: 576
VWidth: 214
Flags: W
HStem: 200 21G<92.5 111.5 470 483.5> 809 20G<92.5 111.5 470 483.5>
VStem: 66 70<203.143 407 506 825.857>
LayerCount: 2
Back
Fore
SplineSet
102 829 m 0
 121 829 136 813 136 794 c 0
 136 506 l 1
 166 535 l 2
 168 538 171 541 174 543 c 2
 450 818 l 2
 456 824 466 829 474 829 c 0
 493 829 510 813 510 794 c 0
 510 786 504 775 498 769 c 2
 244 515 l 1
 498 260 l 2
 504 254 510 243 510 235 c 0
 510 216 493 200 474 200 c 0
 466 200 456 205 450 211 c 2
 194 465 l 1
 136 407 l 1
 136 235 l 2
 136 216 121 200 102 200 c 0
 83 200 66 216 66 235 c 0
 66 416 l 2
 66 417 66 420 66 421 c 0
 66 422 66 425 66 426 c 2
 66 794 l 2
 66 813 83 829 102 829 c 0
EndSplineSet
EndChar

StartChar: L
Encoding: 76 76 43
Width: 576
VWidth: 214
Flags: W
HStem: 200 70<136 507.047> 809 20G<90.5 111.5>
VStem: 66 70<270 826.531>
LayerCount: 2
Back
Fore
SplineSet
100 829 m 0
 102 829 l 0
 121 829 136 813 136 794 c 0
 136 270 l 1
 474 270 l 2
 493 270 510 254 510 235 c 0
 510 216 493 200 474 200 c 0
 102 200 l 2
 83 200 66 216 66 235 c 2
 66 794 l 2
 66 813 81 829 100 829 c 0
EndSplineSet
EndChar

StartChar: M
Encoding: 77 77 44
Width: 576
VWidth: 214
Flags: W
HStem: 200 21G<92.5 111.5 464.5 483.5> 809 20G<91.5 106 470 483.5>
VStem: 67 70<202.797 709> 253 70<482.797 593> 439 70<202.797 709>
CounterMasks: 1 38
LayerCount: 2
Back
Fore
SplineSet
101 829 m 0
 102 829 l 0
 110 829 121 824 127 818 c 2
 288 657 l 1
 449 818 l 2
 455 824 466 829 474 829 c 0
 493 829 509 813 509 794 c 2
 509 235 l 2
 509 216 493 200 474 200 c 0
 455 200 439 216 439 235 c 0
 439 709 l 1
 323 593 l 1
 323 515 l 2
 323 496 307 480 288 480 c 0
 269 480 253 496 253 515 c 2
 253 593 l 1
 137 709 l 1
 137 235 l 2
 137 216 121 200 102 200 c 0
 83 200 67 216 67 235 c 0
 67 794 l 2
 67 813 82 829 101 829 c 0
EndSplineSet
EndChar

StartChar: N
Encoding: 78 78 45
Width: 576
VWidth: 214
Flags: W
HStem: 200 21G<92.5 111.5 464.5 483.5> 809 20G<92.5 111.5 464.5 483.5>
VStem: 66 70<203.143 616 715 825.857> 438 70<203.143 314 413 825.857>
LayerCount: 2
Back
Fore
SplineSet
102 829 m 0
 121 829 136 813 136 794 c 0
 136 715 l 1
 438 413 l 1
 438 794 l 2
 438 813 455 829 474 829 c 0
 493 829 508 813 508 794 c 0
 508 333 l 2
 508 332 510 329 510 328 c 0
 510 327 508 324 508 323 c 2
 508 235 l 2
 508 216 493 200 474 200 c 0
 455 200 438 216 438 235 c 0
 438 314 l 1
 136 616 l 1
 136 235 l 2
 136 216 121 200 102 200 c 0
 83 200 66 216 66 235 c 0
 66 696 l 2
 66 697 66 700 66 701 c 0
 66 702 66 705 66 706 c 2
 66 794 l 2
 66 813 83 829 102 829 c 0
EndSplineSet
EndChar

StartChar: O
Encoding: 79 79 46
Width: 576
VWidth: 214
Flags: W
HStem: 200 70<210 367> 759 70<210 367>
VStem: 67 70<343 686> 439 70<343 686>
LayerCount: 2
Back
Fore
SplineSet
195 829 m 2
 381 829 l 2
 389 829 400 824 406 818 c 2
 499 725 l 2
 505 719 509 709 509 701 c 2
 509 328 l 2
 509 320 505 310 499 304 c 2
 406 211 l 2
 400 205 389 200 381 200 c 0
 195 200 l 2
 187 200 177 205 171 211 c 2
 81 300 l 2
 77 303 72 309 70 314 c 0
 70 315 l 0
 69 319 67 325 67 329 c 0
 67 330 67 333 67 334 c 2
 67 701 l 2
 67 709 72 719 78 725 c 2
 171 818 l 2
 177 824 187 829 195 829 c 2
210 759 m 1
 137 686 l 1
 137 343 l 1
 210 270 l 1
 367 270 l 1
 439 343 l 1
 439 686 l 1
 367 759 l 1
 210 759 l 1
EndSplineSet
EndChar

StartChar: P
Encoding: 80 80 47
Width: 576
VWidth: 214
Flags: W
HStem: 200 21G<92.5 111.5> 480 70<136 366> 759 70<136 366>
VStem: 66 70<203.143 480 550 759> 440 70<622 686>
LayerCount: 2
Back
Fore
SplineSet
102 829 m 2
 382 829 l 2
 390 829 400 824 406 818 c 2
 498 725 l 2
 504 719 510 709 510 701 c 2
 510 608 l 2
 510 600 504 589 498 583 c 2
 406 490 l 2
 400 484 390 480 382 480 c 0
 136 480 l 1
 136 235 l 2
 136 216 121 200 102 200 c 0
 83 200 66 216 66 235 c 0
 66 509 l 2
 66 511 66 513 66 515 c 0
 66 517 66 518 66 520 c 2
 66 794 l 2
 66 813 83 829 102 829 c 2
136 759 m 1
 136 550 l 1
 366 550 l 1
 440 622 l 1
 440 686 l 1
 366 759 l 1
 136 759 l 1
EndSplineSet
EndChar

StartChar: Q
Encoding: 81 81 48
Width: 576
VWidth: 214
Flags: W
HStem: 200 70<210 367> 759 70<210 367>
VStem: 67 70<343 686> 439 70<343 686>
LayerCount: 2
Back
Fore
SplineSet
195 829 m 2
 381 829 l 2
 389 829 400 824 406 818 c 2
 499 725 l 2
 505 719 509 709 509 701 c 2
 509 328 l 2
 509 320 505 310 499 304 c 2
 477 282 l 1
 499 260 l 2
 505 254 509 243 509 235 c 0
 509 216 493 200 474 200 c 0
 466 200 455 205 449 211 c 2
 428 232 l 1
 409 214 l 2
 406 210 400 205 395 203 c 0
 394 203 l 0
 390 202 385 200 381 200 c 0
 380 200 377 200 376 200 c 2
 195 200 l 2
 187 200 176 205 170 211 c 2
 77 304 l 2
 71 310 67 320 67 328 c 2
 67 701 l 2
 67 709 71 719 77 725 c 2
 170 818 l 2
 176 824 187 829 195 829 c 2
210 759 m 1
 137 686 l 1
 137 343 l 1
 210 270 l 1
 367 270 l 1
 378 282 l 1
 263 397 l 2
 257 403 253 414 253 422 c 0
 253 441 269 457 288 457 c 0
 296 457 307 452 313 446 c 2
 428 331 l 1
 439 343 l 1
 439 686 l 1
 367 759 l 1
 210 759 l 1
EndSplineSet
EndChar

StartChar: R
Encoding: 82 82 49
Width: 576
VWidth: 214
Flags: W
HStem: 200 21G<92.5 111.5 470 483.5> 480 70<136 180 280 366> 759 70<136 366>
VStem: 66 70<203.143 480 550 759> 440 70<622 686>
LayerCount: 2
Back
Fore
SplineSet
102 829 m 2
 382 829 l 2
 390 829 400 824 406 818 c 2
 498 725 l 2
 504 719 510 709 510 701 c 2
 510 608 l 2
 510 600 504 589 498 583 c 2
 406 490 l 2
 400 484 390 480 382 480 c 0
 280 480 l 1
 498 260 l 2
 504 254 510 243 510 235 c 0
 510 216 493 200 474 200 c 0
 466 200 456 205 450 211 c 2
 180 480 l 1
 136 480 l 1
 136 235 l 2
 136 216 121 200 102 200 c 0
 83 200 66 216 66 235 c 0
 66 509 l 2
 66 511 66 513 66 515 c 0
 66 517 66 518 66 520 c 2
 66 794 l 2
 66 813 83 829 102 829 c 2
136 759 m 1
 136 550 l 1
 190 550 l 2
 191 550 193 550 194 550 c 0
 195 550 199 550 200 550 c 2
 366 550 l 1
 440 622 l 1
 440 686 l 1
 366 759 l 1
 136 759 l 1
EndSplineSet
EndChar

StartChar: S
Encoding: 83 83 50
Width: 576
VWidth: 214
Flags: W
HStem: 200 70<210 366> 480 70<210 366> 759 70<210 366>
VStem: 66 70<622 686> 438 70<343 407>
LayerCount: 2
Back
Fore
SplineSet
194 829 m 2
 380 829 l 2
 388 829 400 824 406 818 c 2
 498 725 l 2
 504 719 510 708 510 700 c 0
 510 681 493 665 474 665 c 0
 466 665 456 670 450 676 c 2
 366 759 l 1
 210 759 l 1
 136 686 l 1
 136 622 l 1
 210 550 l 1
 380 550 l 2
 388 550 400 545 406 539 c 2
 498 446 l 2
 504 440 508 430 508 422 c 2
 508 328 l 2
 508 320 504 310 498 304 c 2
 406 211 l 2
 400 205 388 200 380 200 c 0
 194 200 l 2
 186 200 176 205 170 211 c 2
 78 304 l 2
 72 310 66 321 66 329 c 0
 66 348 83 364 102 364 c 0
 110 364 120 359 126 353 c 2
 210 270 l 1
 366 270 l 1
 438 343 l 1
 438 407 l 1
 366 480 l 1
 194 480 l 2
 186 480 176 484 170 490 c 2
 78 583 l 2
 72 589 66 600 66 608 c 2
 66 701 l 2
 66 709 72 719 78 725 c 2
 170 818 l 2
 176 824 186 829 194 829 c 2
EndSplineSet
EndChar

StartChar: T
Encoding: 84 84 51
Width: 576
VWidth: 214
Flags: W
HStem: 200 21G<278.5 297.5> 759 70<68.9531 254 324 507.047>
VStem: 254 70<203.143 759>
LayerCount: 2
Back
Fore
SplineSet
288 829 m 0
 290 829 292 829 294 829 c 2
 474 829 l 2
 493 829 510 813 510 794 c 0
 510 775 493 759 474 759 c 0
 324 759 l 1
 324 235 l 2
 324 216 307 200 288 200 c 0
 269 200 254 216 254 235 c 0
 254 759 l 1
 102 759 l 2
 83 759 66 775 66 794 c 0
 66 813 83 829 102 829 c 0
 282 829 l 2
 283 829 287 829 288 829 c 0
EndSplineSet
EndChar

StartChar: U
Encoding: 85 85 52
Width: 576
VWidth: 214
Flags: W
HStem: 200 70<210 367> 809 20G<91.5 111.5 464.5 483.5>
VStem: 67 70<343 826.203> 439 70<343 826.203>
LayerCount: 2
Back
Fore
SplineSet
101 829 m 0
 102 829 l 0
 121 829 137 813 137 794 c 0
 137 343 l 1
 210 270 l 1
 367 270 l 1
 439 343 l 1
 439 794 l 2
 439 813 455 829 474 829 c 0
 493 829 509 813 509 794 c 0
 509 328 l 2
 509 320 505 310 499 304 c 2
 406 211 l 2
 400 205 389 200 381 200 c 0
 195 200 l 2
 187 200 176 205 170 211 c 2
 77 304 l 2
 71 310 67 320 67 328 c 2
 67 794 l 2
 67 813 82 829 101 829 c 0
EndSplineSet
EndChar

StartChar: V
Encoding: 86 86 53
Width: 576
VWidth: 214
Flags: W
HStem: 200 21G<284 292> 809 20G<91.5 111.5 464.5 483.5>
VStem: 67 70<436 826.203> 439 70<436 826.203>
LayerCount: 2
Back
Fore
SplineSet
101 829 m 0
 102 829 l 0
 121 829 137 813 137 794 c 0
 137 436 l 1
 288 285 l 1
 439 436 l 1
 439 794 l 2
 439 813 455 829 474 829 c 0
 493 829 509 813 509 794 c 0
 509 422 l 2
 509 414 505 403 499 397 c 2
 313 211 l 2
 307 205 296 200 288 200 c 0
 280 200 269 205 263 211 c 2
 77 397 l 2
 71 403 67 414 67 422 c 2
 67 794 l 2
 67 813 82 829 101 829 c 0
EndSplineSet
EndChar

StartChar: W
Encoding: 87 87 54
Width: 576
VWidth: 214
Flags: W
HStem: 200 21G<92.5 106 470 483.5> 809 20G<91.5 111.5 464.5 483.5>
VStem: 67 70<320 826.203> 253 70<436 547.203> 439 70<320 826.203>
CounterMasks: 1 38
LayerCount: 2
Back
Fore
SplineSet
101 829 m 0
 102 829 l 0
 121 829 137 813 137 794 c 0
 137 320 l 1
 253 436 l 1
 253 515 l 2
 253 534 269 550 288 550 c 0
 307 550 323 534 323 515 c 0
 323 436 l 1
 439 320 l 1
 439 794 l 2
 439 813 455 829 474 829 c 0
 493 829 509 813 509 794 c 0
 509 235 l 2
 509 216 493 200 474 200 c 0
 466 200 455 205 449 211 c 2
 288 372 l 1
 127 211 l 2
 121 205 110 200 102 200 c 0
 83 200 67 216 67 235 c 2
 67 794 l 2
 67 813 82 829 101 829 c 0
EndSplineSet
EndChar

StartChar: X
Encoding: 88 88 55
Width: 576
VWidth: 214
Flags: W
HStem: 200 21G<92.5 111.5 464.5 483.5> 809 20G<91.5 111.5 464.5 483.5>
VStem: 67 70<202.797 314 715 826.203> 439 70<202.797 314 715 826.203>
LayerCount: 2
Back
Fore
SplineSet
101 829 m 0
 102 829 l 0
 121 829 137 813 137 794 c 0
 137 715 l 1
 288 564 l 1
 439 715 l 1
 439 794 l 2
 439 813 455 829 474 829 c 0
 493 829 509 813 509 794 c 0
 509 701 l 2
 509 693 505 682 499 676 c 2
 338 515 l 1
 499 353 l 2
 505 347 509 336 509 328 c 2
 509 235 l 2
 509 216 493 200 474 200 c 0
 455 200 439 216 439 235 c 0
 439 314 l 1
 288 465 l 1
 137 314 l 1
 137 235 l 2
 137 216 121 200 102 200 c 0
 83 200 67 216 67 235 c 0
 67 328 l 2
 67 336 71 347 77 353 c 2
 239 515 l 1
 77 676 l 2
 71 682 67 693 67 701 c 2
 67 794 l 2
 67 813 82 829 101 829 c 0
EndSplineSet
EndChar

StartChar: Y
Encoding: 89 89 56
Width: 576
VWidth: 214
Flags: W
HStem: 200 21G<278.5 297.5> 809 20G<91.5 111.5 464.5 483.5>
VStem: 67 70<715 826.203> 253 70<202.797 500> 439 70<715 826.203>
CounterMasks: 1 38
LayerCount: 2
Back
Fore
SplineSet
101 829 m 0
 102 829 l 0
 121 829 137 813 137 794 c 0
 137 715 l 1
 288 564 l 1
 439 715 l 1
 439 794 l 2
 439 813 455 829 474 829 c 0
 493 829 509 813 509 794 c 0
 509 701 l 2
 509 693 505 682 499 676 c 2
 323 500 l 1
 323 235 l 2
 323 216 307 200 288 200 c 0
 269 200 253 216 253 235 c 0
 253 500 l 1
 77 676 l 2
 71 682 67 693 67 701 c 2
 67 794 l 2
 67 813 82 829 101 829 c 0
EndSplineSet
EndChar

StartChar: Z
Encoding: 90 90 57
Width: 576
VWidth: 214
Flags: W
HStem: 200 70<136 507.047> 759 70<68.9531 440>
VStem: 66 70<270 314> 440 70<715 759>
LayerCount: 2
Back
Fore
SplineSet
102 829 m 0
 474 829 l 2
 493 829 510 813 510 794 c 2
 510 701 l 2
 510 693 504 682 498 676 c 2
 136 314 l 1
 136 270 l 1
 474 270 l 2
 493 270 510 254 510 235 c 0
 510 216 493 200 474 200 c 0
 102 200 l 2
 83 200 66 216 66 235 c 2
 66 328 l 2
 66 336 72 347 78 353 c 2
 440 715 l 1
 440 759 l 1
 102 759 l 2
 83 759 66 775 66 794 c 0
 66 813 83 829 102 829 c 0
EndSplineSet
EndChar

StartChar: bracketleft
Encoding: 91 91 58
Width: 576
VWidth: 214
Flags: W
HStem: 200 70<230 413.359> 759 70<230 413.359>
VStem: 160 70<270 759>
LayerCount: 2
Back
Fore
SplineSet
194 829 m 0
 380 829 l 2
 382 829 l 0
 401 829 416 813 416 794 c 0
 416 775 401 759 382 759 c 0
 380 759 l 2
 230 759 l 1
 230 270 l 1
 380 270 l 2
 382 270 l 0
 401 270 416 254 416 235 c 0
 416 216 401 200 382 200 c 0
 380 200 l 2
 194 200 l 2
 175 200 160 216 160 235 c 2
 160 794 l 2
 160 813 175 829 194 829 c 0
EndSplineSet
EndChar

StartChar: backslash
Encoding: 92 92 59
Width: 576
VWidth: 214
Flags: W
HStem: 200 21G<517 530.5>
LayerCount: 2
Back
Fore
SplineSet
55 736 m 0
 63 736 74 731 80 725 c 2
 545 260 l 2
 551 254 556 243 556 235 c 0
 556 216 540 200 521 200 c 0
 513 200 502 205 496 211 c 2
 31 676 l 2
 25 682 20 693 20 701 c 0
 20 720 36 736 55 736 c 0
EndSplineSet
EndChar

StartChar: bracketright
Encoding: 93 93 60
Width: 576
VWidth: 214
Flags: W
HStem: 200 70<162.641 346> 759 70<162.641 346>
VStem: 346 70<270 759>
LayerCount: 2
Back
Fore
SplineSet
194 829 m 0
 382 829 l 2
 401 829 416 813 416 794 c 2
 416 235 l 2
 416 216 401 200 382 200 c 2
 194 200 l 2
 175 200 160 216 160 235 c 0
 160 254 175 270 194 270 c 0
 346 270 l 1
 346 759 l 1
 194 759 l 2
 175 759 160 775 160 794 c 0
 160 813 175 829 194 829 c 0
EndSplineSet
EndChar

StartChar: asciicircum
Encoding: 94 94 61
Width: 576
VWidth: 214
Flags: W
HStem: 479 257
LayerCount: 2
Back
Fore
SplineSet
288 736 m 0
 296 736 306 731 312 725 c 2
 498 539 l 2
 504 533 510 522 510 514 c 0
 510 495 493 479 474 479 c 0
 466 479 456 484 450 490 c 2
 288 651 l 1
 126 490 l 2
 120 484 110 479 102 479 c 0
 83 479 66 495 66 514 c 0
 66 522 72 533 78 539 c 2
 264 725 l 2
 270 731 280 736 288 736 c 0
EndSplineSet
EndChar

StartChar: underscore
Encoding: 95 95 62
Width: 576
VWidth: 214
Flags: W
HStem: 107 70<-70.2031 646.203>
LayerCount: 2
Back
Fore
SplineSet
-38 177 m 0
 614 177 l 2
 633 177 649 161 649 142 c 0
 649 123 633 107 614 107 c 0
 -38 107 l 2
 -57 107 -73 123 -73 142 c 0
 -73 161 -57 177 -38 177 c 0
EndSplineSet
EndChar

StartChar: grave
Encoding: 96 96 63
Width: 576
VWidth: 214
Flags: W
HStem: 572 257
VStem: 206 164
LayerCount: 2
Back
Fore
SplineSet
242 829 m 0
 254 829 269 820 274 809 c 2
 366 623 l 2
 368 619 370 612 370 607 c 0
 370 588 353 572 334 572 c 0
 322 572 309 581 304 592 c 2
 210 778 l 2
 208 782 206 789 206 794 c 0
 206 813 223 829 242 829 c 0
EndSplineSet
EndChar

StartChar: a
Encoding: 97 97 64
Width: 576
VWidth: 214
Flags: W
HStem: 200 70<210 274> 480 70<210 274> 573 70<68.9531 274>
VStem: 66 70<343 407> 346 70<343 407>
LayerCount: 2
Back
Fore
SplineSet
102 643 m 0
 288 643 l 2
 296 643 306 638 312 632 c 2
 406 539 l 2
 412 533 416 523 416 515 c 2
 416 426 l 2
 416 425 416 422 416 421 c 0
 416 420 416 417 416 416 c 2
 416 343 l 1
 498 260 l 2
 504 254 510 243 510 235 c 0
 510 216 493 200 474 200 c 0
 466 200 456 205 450 211 c 2
 382 279 l 1
 312 211 l 2
 306 205 296 200 288 200 c 2
 196 200 l 2
 188 200 176 205 170 211 c 2
 78 304 l 2
 72 310 66 320 66 328 c 2
 66 422 l 2
 66 430 72 440 78 446 c 2
 170 539 l 2
 176 545 188 550 196 550 c 2
 288 550 l 2
 291 550 295 549 298 548 c 2
 274 573 l 1
 102 573 l 2
 83 573 66 589 66 608 c 0
 66 627 83 643 102 643 c 0
210 480 m 1
 136 407 l 1
 136 343 l 1
 210 270 l 1
 274 270 l 1
 346 343 l 1
 346 407 l 1
 274 480 l 1
 210 480 l 1
EndSplineSet
EndChar

StartChar: b
Encoding: 98 98 65
Width: 576
VWidth: 214
Flags: W
HStem: 200 70<183 320> 573 70<183 320> 809 20G<138.5 157.5>
VStem: 113 70<270 573 643 826.203> 393 70<343 500>
LayerCount: 2
Back
Fore
SplineSet
148 829 m 0
 167 829 183 813 183 794 c 0
 183 643 l 1
 335 643 l 2
 343 643 353 638 359 632 c 2
 452 539 l 2
 458 533 463 523 463 515 c 2
 463 328 l 2
 463 320 458 310 452 304 c 2
 359 211 l 2
 353 205 343 200 335 200 c 2
 148 200 l 2
 129 200 113 216 113 235 c 2
 113 602 l 2
 113 604 113 606 113 608 c 0
 113 610 113 611 113 613 c 2
 113 794 l 2
 113 813 129 829 148 829 c 0
183 573 m 1
 183 270 l 1
 320 270 l 1
 393 343 l 1
 393 500 l 1
 320 573 l 1
 183 573 l 1
EndSplineSet
EndChar

StartChar: c
Encoding: 99 99 66
Width: 576
VWidth: 214
Flags: W
HStem: 200 70<256 320> 573 70<256 320>
VStem: 114 70<343 500>
LayerCount: 2
Back
Fore
SplineSet
242 643 m 0
 334 643 l 2
 342 643 354 638 360 632 c 2
 452 539 l 2
 458 533 462 522 462 514 c 0
 462 495 447 479 428 479 c 0
 420 479 408 484 402 490 c 2
 320 573 l 1
 256 573 l 1
 184 500 l 1
 184 343 l 1
 256 270 l 1
 320 270 l 1
 402 353 l 2
 408 359 420 364 428 364 c 0
 447 364 462 348 462 329 c 0
 462 321 458 310 452 304 c 2
 360 211 l 2
 354 205 342 200 334 200 c 2
 242 200 l 2
 234 200 222 205 216 211 c 2
 124 304 l 2
 118 310 114 320 114 328 c 2
 114 515 l 2
 114 523 118 533 124 539 c 2
 216 632 l 2
 222 638 234 643 242 643 c 0
EndSplineSet
EndChar

StartChar: d
Encoding: 100 100 67
Width: 576
VWidth: 214
Flags: W
HStem: 200 70<256 392> 573 70<256 392> 809 20G<417.5 436.5>
VStem: 113 70<343 500> 392 70<270 573 643 826.203>
LayerCount: 2
Back
Fore
SplineSet
427 829 m 0
 446 829 462 813 462 794 c 0
 462 613 l 2
 462 611 463 610 463 608 c 0
 463 606 462 604 462 602 c 2
 462 235 l 2
 462 216 446 200 427 200 c 2
 241 200 l 2
 233 200 222 205 216 211 c 2
 123 304 l 2
 117 310 113 320 113 328 c 2
 113 515 l 2
 113 523 117 533 123 539 c 2
 216 632 l 2
 222 638 233 643 241 643 c 0
 392 643 l 1
 392 794 l 2
 392 813 408 829 427 829 c 0
256 573 m 1
 183 500 l 1
 183 343 l 1
 256 270 l 1
 392 270 l 1
 392 573 l 1
 256 573 l 1
EndSplineSet
EndChar

StartChar: e
Encoding: 101 101 68
Width: 576
VWidth: 214
Flags: W
HStem: 200 70<256 460.203> 387 70<183 393> 573 70<256 320>
VStem: 113 70<343 387 457 500> 393 70<457 500>
LayerCount: 2
Back
Fore
SplineSet
241 643 m 0
 335 643 l 2
 343 643 353 638 359 632 c 2
 452 539 l 2
 458 533 463 523 463 515 c 2
 463 422 l 2
 463 403 447 387 428 387 c 2
 183 387 l 1
 183 343 l 1
 256 270 l 1
 428 270 l 2
 447 270 463 254 463 235 c 0
 463 216 447 200 428 200 c 0
 241 200 l 2
 233 200 223 205 217 211 c 2
 124 304 l 2
 118 310 113 320 113 328 c 2
 113 416 l 2
 113 418 113 420 113 422 c 0
 113 424 113 425 113 427 c 2
 113 515 l 2
 113 523 118 533 124 539 c 2
 217 632 l 2
 223 638 233 643 241 643 c 0
256 573 m 1
 183 500 l 1
 183 457 l 1
 393 457 l 1
 393 500 l 1
 320 573 l 1
 256 573 l 1
EndSplineSet
EndChar

StartChar: f
Encoding: 102 102 69
Width: 576
VWidth: 214
Flags: W
HStem: 200 21G<278.5 297.5> 480 70<162.641 254 324 413.359> 759 70<324 413.359>
VStem: 254 70<203.143 480 550 759>
LayerCount: 2
Back
Fore
SplineSet
288 829 m 1
 382 829 l 2
 401 829 416 813 416 794 c 0
 416 775 401 759 382 759 c 0
 324 759 l 1
 324 550 l 1
 382 550 l 2
 401 550 416 534 416 515 c 0
 416 496 401 480 382 480 c 0
 324 480 l 1
 324 235 l 2
 324 216 307 200 288 200 c 0
 269 200 254 216 254 235 c 0
 254 480 l 1
 194 480 l 2
 175 480 160 496 160 515 c 0
 160 534 175 550 194 550 c 0
 254 550 l 1
 254 794 l 2
 254 813 269 829 288 829 c 1
EndSplineSet
EndChar

StartChar: g
Encoding: 103 103 70
Width: 576
VWidth: 214
Flags: W
HStem: 107 70<256 320> 293 70<256 320> 573 70<256 320>
VStem: 113 70<436 500> 392 70<250 337 436 500>
LayerCount: 2
Back
Fore
SplineSet
241 643 m 0
 334 643 l 2
 342 643 353 638 359 632 c 2
 452 539 l 2
 458 533 462 523 462 515 c 2
 462 427 l 2
 462 426 463 423 463 422 c 0
 463 421 462 418 462 417 c 2
 462 235 l 2
 462 227 458 217 452 211 c 2
 359 118 l 2
 353 112 342 107 334 107 c 2
 241 107 l 2
 233 107 223 112 217 118 c 2
 124 211 l 2
 118 217 113 228 113 236 c 0
 113 255 129 271 148 271 c 0
 156 271 167 266 173 260 c 2
 256 177 l 1
 320 177 l 1
 392 250 l 1
 392 337 l 1
 359 304 l 2
 353 298 342 293 334 293 c 2
 241 293 l 2
 233 293 223 298 217 304 c 2
 124 397 l 2
 118 403 113 414 113 422 c 2
 113 515 l 2
 113 523 118 533 124 539 c 2
 217 632 l 2
 223 638 233 643 241 643 c 0
256 573 m 1
 183 500 l 1
 183 436 l 1
 256 363 l 1
 320 363 l 1
 392 436 l 1
 392 500 l 1
 320 573 l 1
 256 573 l 1
EndSplineSet
EndChar

StartChar: h
Encoding: 104 104 71
Width: 576
VWidth: 214
Flags: W
HStem: 200 21G<138.5 157.5 418.5 437.5> 573 70<183 320> 809 20G<138.5 157.5>
VStem: 113 70<202.797 573 643 826.203> 393 70<202.797 500>
LayerCount: 2
Back
Fore
SplineSet
148 829 m 0
 167 829 183 813 183 794 c 0
 183 643 l 1
 335 643 l 2
 343 643 353 638 359 632 c 2
 452 539 l 2
 458 533 463 523 463 515 c 2
 463 235 l 2
 463 216 447 200 428 200 c 0
 409 200 393 216 393 235 c 0
 393 500 l 1
 320 573 l 1
 183 573 l 1
 183 235 l 2
 183 216 167 200 148 200 c 0
 129 200 113 216 113 235 c 0
 113 602 l 2
 113 604 113 606 113 608 c 0
 113 610 113 611 113 613 c 2
 113 794 l 2
 113 813 129 829 148 829 c 0
EndSplineSet
EndChar

StartChar: i
Encoding: 105 105 72
Width: 576
VWidth: 214
Flags: W
HStem: 200 21G<278.5 297.5> 572 164<255.797 320.203>
VStem: 253 70<202.797 547.203 574.797 733.203>
LayerCount: 2
Back
Fore
SplineSet
287 736 m 0
 288 736 l 0
 307 736 323 720 323 701 c 0
 323 608 l 2
 323 607 l 0
 323 588 307 572 288 572 c 0
 269 572 253 588 253 607 c 0
 253 608 l 2
 253 701 l 2
 253 720 268 736 287 736 c 0
287 550 m 0
 288 550 l 0
 307 550 323 534 323 515 c 0
 323 235 l 2
 323 216 307 200 288 200 c 0
 269 200 253 216 253 235 c 0
 253 515 l 2
 253 534 268 550 287 550 c 0
EndSplineSet
EndChar

StartChar: j
Encoding: 106 106 73
Width: 576
VWidth: 214
Flags: W
HStem: 107 70<256 320> 572 164<394.953 459.359>
VStem: 392 70<250 546.857 575.143 732.857>
LayerCount: 2
Back
Fore
SplineSet
428 736 m 0
 447 736 462 720 462 701 c 0
 462 608 l 2
 462 607 l 0
 462 588 447 572 428 572 c 0
 409 572 392 588 392 607 c 0
 392 608 l 2
 392 701 l 2
 392 720 409 736 428 736 c 0
428 550 m 0
 447 550 462 534 462 515 c 0
 462 235 l 2
 462 227 458 217 452 211 c 2
 360 118 l 2
 354 112 342 107 334 107 c 2
 242 107 l 2
 234 107 224 112 218 118 c 2
 124 211 l 2
 118 217 114 228 114 236 c 0
 114 255 129 271 148 271 c 0
 156 271 168 266 174 260 c 2
 256 177 l 1
 320 177 l 1
 392 250 l 1
 392 515 l 2
 392 534 409 550 428 550 c 0
EndSplineSet
EndChar

StartChar: k
Encoding: 107 107 74
Width: 576
VWidth: 214
Flags: W
HStem: 200 21G<138.5 157.5 424 437.5> 623 20G<424 437.5> 809 20G<138.5 157.5>
VStem: 113 70<202.797 314 413 826.203>
LayerCount: 2
Back
Fore
SplineSet
148 829 m 0
 167 829 183 813 183 794 c 0
 183 413 l 1
 213 442 l 2
 215 445 218 448 221 450 c 2
 403 632 l 2
 409 638 420 643 428 643 c 0
 447 643 463 627 463 608 c 0
 463 600 458 589 452 583 c 2
 291 422 l 1
 452 260 l 2
 458 254 463 243 463 235 c 0
 463 216 447 200 428 200 c 0
 420 200 409 205 403 211 c 2
 241 372 l 1
 183 314 l 1
 183 235 l 2
 183 216 167 200 148 200 c 0
 129 200 113 216 113 235 c 0
 113 323 l 2
 113 324 113 327 113 328 c 0
 113 329 113 332 113 333 c 2
 113 794 l 2
 113 813 129 829 148 829 c 0
EndSplineSet
EndChar

StartChar: l
Encoding: 108 108 75
Width: 576
VWidth: 214
Flags: W
HStem: 200 70<276 367.203> 809 20G<230.5 250.5>
VStem: 206 164<202.797 267.203> 206 70<270 826.203>
LayerCount: 2
Back
Fore
SplineSet
240 829 m 0xd0
 241 829 l 0
 260 829 276 813 276 794 c 0
 276 270 l 1xd0
 334 270 l 2
 335 270 l 0
 354 270 370 254 370 235 c 0
 370 216 354 200 335 200 c 0
 334 200 l 2
 241 200 l 2
 222 200 206 216 206 235 c 2xe0
 206 794 l 2
 206 813 221 829 240 829 c 0xd0
EndSplineSet
EndChar

StartChar: m
Encoding: 109 109 76
Width: 576
VWidth: 214
Flags: W
HStem: 200 21G<92.5 111.5 278.5 297.5 464.5 483.5> 623 20G<92.5 111.5 191 199 377 385>
VStem: 67 70<202.797 500 599 640.203> 253 70<202.797 500> 439 70<202.797 500>
CounterMasks: 1 38
LayerCount: 2
Back
Fore
SplineSet
102 643 m 0
 121 643 137 627 137 608 c 0
 137 599 l 1
 171 632 l 2
 177 638 187 643 195 643 c 0
 203 643 214 638 220 632 c 2
 288 564 l 1
 357 632 l 2
 363 638 373 643 381 643 c 0
 389 643 400 638 406 632 c 2
 499 539 l 2
 505 533 509 523 509 515 c 2
 509 235 l 2
 509 216 493 200 474 200 c 0
 455 200 439 216 439 235 c 0
 439 500 l 1
 381 558 l 1
 323 500 l 1
 323 235 l 2
 323 216 307 200 288 200 c 0
 269 200 253 216 253 235 c 0
 253 500 l 1
 195 558 l 1
 137 500 l 1
 137 235 l 2
 137 216 121 200 102 200 c 0
 83 200 67 216 67 235 c 0
 67 509 l 2
 67 510 67 513 67 514 c 0
 67 515 67 518 67 519 c 2
 67 608 l 2
 67 627 83 643 102 643 c 0
EndSplineSet
EndChar

StartChar: n
Encoding: 110 110 77
Width: 576
VWidth: 214
Flags: W
HStem: 200 21G<138.5 157.5 418.5 437.5> 573 70<256 320>
VStem: 114 70<203.143 500 599 639.031> 392 70<203.143 500>
LayerCount: 2
Back
Fore
SplineSet
242 643 m 0
 334 643 l 2
 342 643 354 638 360 632 c 2
 452 539 l 2
 458 533 462 523 462 515 c 2
 462 235 l 2
 462 216 447 200 428 200 c 0
 409 200 392 216 392 235 c 0
 392 500 l 1
 320 573 l 1
 256 573 l 1
 184 500 l 1
 184 235 l 2
 184 216 167 200 148 200 c 0
 129 200 114 216 114 235 c 0
 114 515 l 1
 114 608 l 2
 114 627 129 642 148 642 c 0
 167 642 184 627 184 608 c 2
 184 599 l 1
 216 632 l 2
 222 638 234 643 242 643 c 0
EndSplineSet
EndChar

StartChar: o
Encoding: 111 111 78
Width: 576
VWidth: 214
Flags: W
HStem: 200 70<256 320> 573 70<256 320>
VStem: 114 70<343 500> 392 70<343 500>
LayerCount: 2
Back
Fore
SplineSet
242 643 m 0
 334 643 l 2
 342 643 354 638 360 632 c 2
 452 539 l 2
 458 533 462 523 462 515 c 2
 462 328 l 2
 462 320 458 310 452 304 c 2
 360 211 l 2
 354 205 342 200 334 200 c 2
 242 200 l 2
 234 200 224 205 218 211 c 2
 128 300 l 2
 124 303 118 309 116 314 c 0
 116 315 l 0
 115 319 114 325 114 329 c 0
 114 330 114 333 114 334 c 2
 114 515 l 2
 114 523 118 533 124 539 c 2
 218 632 l 2
 224 638 234 643 242 643 c 0
256 573 m 1
 184 500 l 1
 184 343 l 1
 256 270 l 1
 320 270 l 1
 392 343 l 1
 392 500 l 1
 320 573 l 1
 256 573 l 1
EndSplineSet
EndChar

StartChar: p
Encoding: 112 112 79
Width: 576
VWidth: 214
Flags: W
HStem: 107 21G<138.5 157.5> 293 70<183 320> 573 70<183 320>
VStem: 113 70<109.797 293 363 573> 393 70<436 500>
LayerCount: 2
Back
Fore
SplineSet
148 643 m 0
 335 643 l 2
 343 643 353 638 359 632 c 2
 452 539 l 2
 458 533 463 523 463 515 c 2
 463 422 l 2
 463 414 458 403 452 397 c 2
 359 304 l 2
 353 298 343 293 335 293 c 2
 183 293 l 1
 183 142 l 2
 183 123 167 107 148 107 c 0
 129 107 113 123 113 142 c 0
 113 323 l 2
 113 325 113 327 113 329 c 0
 113 331 113 332 113 334 c 2
 113 608 l 2
 113 627 129 643 148 643 c 0
183 573 m 1
 183 363 l 1
 320 363 l 1
 393 436 l 1
 393 500 l 1
 320 573 l 1
 183 573 l 1
EndSplineSet
EndChar

StartChar: q
Encoding: 113 113 80
Width: 576
VWidth: 214
Flags: W
HStem: 107 70<416 507.047> 293 70<210 346> 573 70<210 346>
VStem: 66 70<436 500> 346 164<110.143 173.857> 346 70<177 293 363 573>
LayerCount: 2
Back
Fore
SplineSet
194 643 m 0xf4
 380 643 l 2
 399 643 416 627 416 608 c 2
 416 334 l 2
 416 332 416 330 416 328 c 0
 416 326 416 325 416 323 c 2
 416 177 l 1xf4
 474 177 l 2
 493 177 510 161 510 142 c 0
 510 123 493 107 474 107 c 0
 380 107 l 2
 361 107 346 123 346 142 c 2xf8
 346 293 l 1
 194 293 l 2
 186 293 176 298 170 304 c 2
 76 397 l 2
 70 403 66 414 66 422 c 2
 66 515 l 2
 66 523 70 533 76 539 c 2
 170 632 l 2
 176 638 186 643 194 643 c 0xf4
210 573 m 1
 136 500 l 1
 136 436 l 1
 210 363 l 1
 346 363 l 1
 346 573 l 1
 210 573 l 1
EndSplineSet
EndChar

StartChar: r
Encoding: 114 114 81
Width: 576
VWidth: 214
Flags: W
HStem: 200 21G<231.5 250.5> 573 70<349 460.203>
VStem: 206 70<202.797 500>
LayerCount: 2
Back
Fore
SplineSet
148 643 m 0
 156 643 167 638 173 632 c 2
 241 564 l 1
 310 632 l 2
 316 638 326 643 334 643 c 2
 427 643 l 2
 428 643 l 0
 447 643 463 627 463 608 c 0
 463 589 447 573 428 573 c 0
 427 573 l 2
 349 573 l 1
 276 500 l 1
 276 235 l 2
 276 216 260 200 241 200 c 0
 222 200 206 216 206 235 c 0
 206 500 l 1
 124 583 l 2
 118 589 113 600 113 608 c 0
 113 627 129 643 148 643 c 0
EndSplineSet
EndChar

StartChar: s
Encoding: 115 115 82
Width: 576
VWidth: 214
Flags: W
HStem: 200 70<256 320> 387 70<256 320> 573 70<256 320>
LayerCount: 2
Back
Fore
SplineSet
241 643 m 0
 334 643 l 2
 342 643 353 638 359 632 c 2
 452 539 l 2
 458 533 463 522 463 514 c 0
 463 495 447 479 428 479 c 0
 420 479 409 484 403 490 c 2
 320 573 l 1
 256 573 l 1
 198 515 l 1
 256 457 l 1
 334 457 l 2
 342 457 353 452 359 446 c 2
 452 353 l 2
 458 347 462 336 462 328 c 0
 462 320 458 310 452 304 c 2
 359 211 l 2
 353 205 342 200 334 200 c 2
 241 200 l 2
 233 200 223 205 217 211 c 2
 124 304 l 2
 118 310 113 321 113 329 c 0
 113 348 129 364 148 364 c 0
 156 364 167 359 173 353 c 2
 256 270 l 1
 320 270 l 1
 378 328 l 1
 320 387 l 1
 241 387 l 2
 233 387 223 391 217 397 c 2
 124 490 l 2
 118 496 113 507 113 515 c 0
 113 523 118 533 124 539 c 2
 217 632 l 2
 223 638 233 643 241 643 c 0
EndSplineSet
EndChar

StartChar: t
Encoding: 116 116 83
Width: 576
VWidth: 214
Flags: W
HStem: 200 70<324 413.359> 573 70<162.641 254 324 413.359> 809 20G<278.5 297.5>
VStem: 254 162<202.469 267.531> 254 70<270 573 643 825.857>
LayerCount: 2
Back
Fore
SplineSet
288 829 m 0xe8
 307 829 324 813 324 794 c 0
 324 643 l 1xe8
 382 643 l 2
 401 643 416 627 416 608 c 0xf0
 416 589 401 573 382 573 c 0
 324 573 l 1
 324 270 l 1xe8
 382 270 l 2
 401 270 416 254 416 235 c 0
 416 216 401 200 382 200 c 0
 288 200 l 2
 269 200 254 216 254 235 c 2xf0
 254 573 l 1
 194 573 l 2
 175 573 160 589 160 608 c 0
 160 627 175 643 194 643 c 0
 254 643 l 1
 254 794 l 2
 254 813 269 829 288 829 c 0xe8
EndSplineSet
EndChar

StartChar: u
Encoding: 117 117 84
Width: 576
VWidth: 214
Flags: W
HStem: 200 70<184 392> 623 20G<138.5 157.5 418.5 437.5>
VStem: 114 70<270 639.857> 392 70<270 639.857>
LayerCount: 2
Back
Fore
SplineSet
148 643 m 0
 167 643 184 627 184 608 c 0
 184 270 l 1
 392 270 l 1
 392 608 l 2
 392 627 409 643 428 643 c 0
 447 643 462 627 462 608 c 0
 462 235 l 2
 462 216 447 200 428 200 c 2
 148 200 l 2
 129 200 114 216 114 235 c 2
 114 608 l 2
 114 627 129 643 148 643 c 0
EndSplineSet
EndChar

StartChar: v
Encoding: 118 118 85
Width: 576
VWidth: 214
Flags: W
HStem: 200 21G<284 292> 623 20G<91.5 111.5 464.5 483.5>
VStem: 67 70<436 640.203> 439 70<436 640.203>
LayerCount: 2
Back
Fore
SplineSet
101 643 m 0
 102 643 l 0
 121 643 137 627 137 608 c 0
 137 436 l 1
 288 285 l 1
 439 436 l 1
 439 608 l 2
 439 627 455 643 474 643 c 0
 493 643 509 627 509 608 c 0
 509 422 l 2
 509 414 505 403 499 397 c 2
 313 211 l 2
 307 205 296 200 288 200 c 0
 280 200 269 205 263 211 c 2
 77 397 l 2
 71 403 67 414 67 422 c 2
 67 608 l 2
 67 627 82 643 101 643 c 0
EndSplineSet
EndChar

StartChar: w
Encoding: 119 119 86
Width: 576
VWidth: 214
Flags: W
HStem: 200 21G<191 199 377 385> 623 20G<91.5 111.5 464.5 483.5>
VStem: 67 70<343 640.203> 253 70<343 453.359> 439 70<343 640.203>
CounterMasks: 1 38
LayerCount: 2
Back
Fore
SplineSet
101 643 m 0
 102 643 l 0
 121 643 137 627 137 608 c 0
 137 343 l 1
 195 285 l 1
 253 343 l 1
 253 422 l 2
 253 441 269 456 288 456 c 0
 307 456 323 441 323 422 c 2
 323 343 l 1
 381 285 l 1
 439 343 l 1
 439 608 l 2
 439 627 455 643 474 643 c 0
 493 643 509 627 509 608 c 0
 509 328 l 2
 509 320 505 310 499 304 c 2
 406 211 l 2
 400 205 389 200 381 200 c 0
 373 200 362 205 356 211 c 2
 288 279 l 1
 220 211 l 2
 214 205 203 200 195 200 c 0
 187 200 176 205 170 211 c 2
 77 304 l 2
 71 310 67 320 67 328 c 2
 67 608 l 2
 67 627 82 643 101 643 c 0
EndSplineSet
EndChar

StartChar: x
Encoding: 120 120 87
Width: 576
VWidth: 214
Flags: W
HStem: 200 21G<92.5 106 470 483.5> 623 20G<92.5 106 470 483.5>
LayerCount: 2
Back
Fore
SplineSet
102 643 m 0
 110 643 120 638 126 632 c 2
 288 471 l 1
 450 632 l 2
 456 638 466 643 474 643 c 0
 493 643 510 627 510 608 c 0
 510 600 504 589 498 583 c 2
 338 422 l 1
 498 260 l 2
 504 254 510 243 510 235 c 0
 510 216 493 200 474 200 c 0
 466 200 456 205 450 211 c 2
 288 372 l 1
 126 211 l 2
 120 205 110 200 102 200 c 0
 83 200 66 216 66 235 c 0
 66 243 72 254 78 260 c 2
 238 422 l 1
 78 583 l 2
 72 589 66 600 66 608 c 0
 66 627 83 643 102 643 c 0
EndSplineSet
EndChar

StartChar: y
Encoding: 121 121 88
Width: 576
VWidth: 214
Flags: W
HStem: 107 21G<92.5 106> 623 20G<92.5 111.5 464.5 483.5>
VStem: 67 70<529 640.203> 439 70<529 640.203>
LayerCount: 2
Back
Fore
SplineSet
102 643 m 0
 121 643 137 627 137 608 c 0
 137 529 l 1
 288 378 l 1
 439 529 l 1
 439 608 l 2
 439 627 455 643 474 643 c 0
 493 643 509 627 509 608 c 0
 509 515 l 2
 509 507 505 496 499 490 c 2
 317 308 l 2
 315 305 312 302 309 300 c 2
 127 118 l 2
 121 112 110 107 102 107 c 0
 83 107 67 123 67 142 c 0
 67 150 72 161 78 167 c 2
 239 328 l 1
 78 490 l 2
 72 496 67 507 67 515 c 2
 67 608 l 2
 67 627 83 643 102 643 c 0
EndSplineSet
EndChar

StartChar: z
Encoding: 122 122 89
Width: 576
VWidth: 214
Flags: W
HStem: 200 70<186 507.047> 573 70<68.9531 390>
LayerCount: 2
Back
Fore
SplineSet
102 643 m 0
 474 643 l 2
 493 643 510 627 510 608 c 0
 510 600 504 589 498 583 c 2
 186 270 l 1
 474 270 l 2
 493 270 510 254 510 235 c 0
 510 216 493 200 474 200 c 0
 102 200 l 2
 83 200 68 216 68 235 c 0
 68 243 72 254 78 260 c 2
 390 573 l 1
 102 573 l 2
 83 573 66 589 66 608 c 0
 66 627 83 643 102 643 c 0
EndSplineSet
EndChar

StartChar: braceleft
Encoding: 123 123 90
Width: 576
VWidth: 214
Flags: W
HStem: 200 70<302 413.359> 759 70<302 413.359>
VStem: 160 256
LayerCount: 2
Back
Fore
SplineSet
288 829 m 1
 380 829 l 2
 382 829 l 0
 401 829 416 813 416 794 c 0
 416 775 401 759 382 759 c 0
 380 759 l 2
 302 759 l 1
 244 701 l 1
 312 632 l 2
 318 626 322 616 322 608 c 0
 322 600 318 589 312 583 c 2
 244 515 l 1
 312 446 l 2
 318 440 322 430 322 422 c 0
 322 414 318 403 312 397 c 2
 244 328 l 1
 302 270 l 1
 380 270 l 2
 382 270 l 0
 401 270 416 254 416 235 c 0
 416 216 401 200 382 200 c 0
 380 200 l 2
 288 200 l 2
 280 200 268 205 262 211 c 2
 170 304 l 2
 164 310 160 320 160 328 c 0
 160 336 164 347 170 353 c 2
 238 422 l 1
 170 490 l 2
 164 496 160 507 160 515 c 0
 160 523 164 533 170 539 c 2
 238 608 l 1
 170 676 l 2
 164 682 160 693 160 701 c 0
 160 709 164 719 170 725 c 2
 262 818 l 2
 268 824 280 829 288 829 c 1
EndSplineSet
EndChar

StartChar: bar
Encoding: 124 124 91
Width: 576
VWidth: 214
Flags: W
HStem: 107 21G<278.5 297.5> 809 20G<277.5 297.5>
VStem: 253 70<109.797 826.203>
LayerCount: 2
Back
Fore
SplineSet
287 829 m 0
 288 829 l 0
 307 829 323 813 323 794 c 0
 323 142 l 2
 323 123 307 107 288 107 c 0
 269 107 253 123 253 142 c 0
 253 794 l 2
 253 813 268 829 287 829 c 0
EndSplineSet
EndChar

StartChar: braceright
Encoding: 125 125 92
Width: 576
VWidth: 214
Flags: W
HStem: 200 70<162.641 274> 759 70<162.641 274>
VStem: 160 256
LayerCount: 2
Back
Fore
SplineSet
194 829 m 0
 288 829 l 2
 296 829 306 824 312 818 c 2
 406 725 l 2
 412 719 416 709 416 701 c 0
 416 693 412 682 406 676 c 2
 338 608 l 1
 406 539 l 2
 412 533 416 523 416 515 c 0
 416 507 412 496 406 490 c 2
 338 422 l 1
 406 353 l 2
 412 347 416 336 416 328 c 0
 416 320 412 310 406 304 c 2
 312 211 l 2
 306 205 296 200 288 200 c 0
 194 200 l 2
 175 200 160 216 160 235 c 0
 160 254 175 270 194 270 c 0
 274 270 l 1
 332 328 l 1
 264 397 l 2
 258 403 254 414 254 422 c 0
 254 430 258 440 264 446 c 2
 332 515 l 1
 264 583 l 2
 258 589 254 600 254 608 c 0
 254 616 258 626 264 632 c 2
 332 701 l 1
 274 759 l 1
 194 759 l 2
 175 759 160 775 160 794 c 0
 160 813 175 829 194 829 c 0
EndSplineSet
EndChar

StartChar: asciitilde
Encoding: 126 126 93
Width: 576
VWidth: 214
Flags: W
HStem: 387 256
LayerCount: 2
Back
Fore
SplineSet
194 643 m 0
 202 643 214 638 220 632 c 2
 380 471 l 1
 450 539 l 2
 456 545 466 550 474 550 c 0
 493 550 510 534 510 515 c 0
 510 507 504 496 498 490 c 2
 406 397 l 2
 400 391 388 387 380 387 c 0
 372 387 362 391 356 397 c 2
 194 558 l 1
 126 490 l 2
 120 484 110 479 102 479 c 0
 83 479 66 495 66 514 c 0
 66 522 72 533 78 539 c 2
 170 632 l 2
 176 638 186 643 194 643 c 0
EndSplineSet
EndChar

StartChar: sterling
Encoding: 163 163 94
Width: 576
VWidth: 214
Flags: W
HStem: 200 70<163 227 349 553.203> 480 70<208.797 299 369 460.203> 666 70<442 553.203>
VStem: 299 70<343 480 550 593>
LayerCount: 2
Back
Fore
SplineSet
427 736 m 1
 520 736 l 2
 521 736 l 0
 540 736 556 720 556 701 c 0
 556 682 540 666 521 666 c 0
 520 666 l 2
 442 666 l 1
 369 593 l 1
 369 550 l 1
 427 550 l 2
 428 550 l 0
 447 550 463 534 463 515 c 0
 463 496 447 480 428 480 c 0
 427 480 l 2
 369 480 l 1
 369 328 l 2
 369 320 365 310 359 304 c 2
 337 282 l 1
 349 270 l 1
 520 270 l 2
 521 270 l 0
 540 270 556 254 556 235 c 0
 556 216 540 200 521 200 c 0
 520 200 l 2
 334 200 l 2
 326 200 315 205 309 211 c 2
 288 232 l 1
 266 211 l 2
 260 205 249 200 241 200 c 2
 148 200 l 2
 140 200 129 205 123 211 c 2
 30 304 l 2
 24 310 20 320 20 328 c 0
 20 336 24 347 30 353 c 2
 123 446 l 2
 129 452 140 457 148 457 c 0
 156 457 167 452 173 446 c 2
 288 331 l 1
 299 343 l 1
 299 480 l 1
 241 480 l 2
 222 480 206 496 206 515 c 0
 206 534 222 550 241 550 c 0
 299 550 l 1
 299 608 l 2
 299 616 303 626 309 632 c 2
 402 725 l 2
 408 731 419 736 427 736 c 1
148 372 m 1
 104 328 l 1
 163 270 l 1
 227 270 l 1
 238 282 l 1
 148 372 l 1
EndSplineSet
EndChar

StartChar: pi
Encoding: 960 960 95
Width: 576
VWidth: 214
Flags: W
HStem: 200 21G<184.5 203.5 370.5 389.5> 480 70<230 346> 623 20G<470 483.5>
VStem: 160 70<203.143 430> 346 70<203.143 480>
LayerCount: 2
Back
Fore
SplineSet
474 643 m 0
 493 643 510 627 510 608 c 0
 510 600 504 589 498 583 c 2
 416 500 l 1
 416 235 l 2
 416 216 399 200 380 200 c 0
 361 200 346 216 346 235 c 0
 346 480 l 1
 230 480 l 1
 230 235 l 2
 230 216 213 200 194 200 c 0
 175 200 160 216 160 235 c 0
 160 430 l 1
 126 397 l 2
 120 391 110 386 102 386 c 0
 83 386 66 402 66 421 c 0
 66 429 72 440 78 446 c 2
 170 539 l 2
 172 541 176 544 178 545 c 0
 180 546 182 547 184 548 c 0
 187 549 191 550 194 550 c 2
 366 550 l 1
 450 632 l 2
 455 638 466 643 474 643 c 0
EndSplineSet
EndChar

StartChar: arrowleft
Encoding: 8592 8592 96
Width: 576
VWidth: 214
Flags: W
HStem: 480 70<140 553.203>
LayerCount: 2
Back
Fore
SplineSet
241 736 m 0
 242 736 l 0
 261 736 277 720 277 701 c 0
 277 693 272 682 266 676 c 2
 140 550 l 1
 521 550 l 2
 540 550 556 534 556 515 c 0
 556 496 540 480 521 480 c 0
 140 480 l 1
 266 353 l 2
 272 347 277 336 277 328 c 0
 277 309 261 293 242 293 c 0
 234 293 223 298 217 304 c 2
 34 487 l 2
 26 493 20 505 20 515 c 0
 20 525 26 536 34 542 c 2
 217 725 l 2
 222 731 233 736 241 736 c 0
EndSplineSet
EndChar

StartChar: arrowup
Encoding: 8593 8593 97
Width: 576
VWidth: 214
Flags: W
HStem: 200 21G<278.5 297.5>
VStem: 252 70<203.143 616>
LayerCount: 2
Back
Fore
SplineSet
288 736 m 0
 298 736 310 730 316 722 c 2
 498 539 l 2
 504 533 510 522 510 514 c 0
 510 495 493 479 474 479 c 0
 466 479 456 484 450 490 c 2
 322 616 l 1
 322 235 l 2
 322 216 307 200 288 200 c 0
 269 200 252 216 252 235 c 0
 252 616 l 1
 126 490 l 2
 120 484 110 479 102 479 c 0
 83 479 66 495 66 514 c 0
 66 522 72 533 78 539 c 2
 260 722 l 2
 266 730 279 736 288 736 c 0
EndSplineSet
EndChar

StartChar: SF100000
Encoding: 9472 9472 98
Width: 576
VWidth: 214
Flags: W
HStem: 480 70<-70.2031 646.203>
LayerCount: 2
Back
Fore
SplineSet
-38 550 m 0
 614 550 l 2
 633 550 649 534 649 515 c 0
 649 496 633 480 614 480 c 0
 -38 480 l 2
 -57 480 -73 496 -73 515 c 0
 -73 534 -57 550 -38 550 c 0
EndSplineSet
EndChar

StartChar: SF110000
Encoding: 9474 9474 99
Width: 576
VWidth: 214
Flags: W
HStem: 107 21G<278.5 297.5> 809 20G<277.5 297.5>
VStem: 253 70<109.797 826.203>
LayerCount: 2
Back
Fore
SplineSet
287 829 m 0
 288 829 l 0
 307 829 323 813 323 794 c 0
 323 142 l 2
 323 123 307 107 288 107 c 0
 269 107 253 123 253 142 c 0
 253 794 l 2
 253 813 268 829 287 829 c 0
EndSplineSet
EndChar

StartChar: uni25B3
Encoding: 9651 9651 100
Width: 576
VWidth: 214
Flags: W
HStem: 200 70<94 482>
LayerCount: 2
Back
Fore
SplineSet
288 550 m 0
 296 550 306 545 312 539 c 2
 592 260 l 2
 598 254 602 243 602 235 c 0
 602 216 587 200 568 200 c 2
 14 200 l 2
 13 200 9 200 8 200 c 0
 -5 200 -19 209 -24 221 c 0
 -24 222 l 0
 -25 226 -26 231 -26 235 c 0
 -26 245 -20 257 -12 263 c 2
 264 539 l 2
 270 545 280 550 288 550 c 0
288 465 m 1
 94 270 l 1
 482 270 l 1
 288 465 l 1
EndSplineSet
EndChar

StartChar: uni25FB
Encoding: 9723 9723 101
Width: 576
VWidth: 214
Flags: W
HStem: 200 70<90 486> 759 70<90 486>
VStem: 20 70<270 759> 486 70<270 759>
LayerCount: 2
Back
Fore
SplineSet
55 829 m 0
 521 829 l 2
 540 829 556 813 556 794 c 2
 556 235 l 2
 556 216 540 200 521 200 c 2
 61 200 l 2
 59 200 57 200 55 200 c 0
 47 200 37 205 31 210 c 0
 30 211 l 0
 24 217 20 227 20 235 c 0
 20 237 20 239 20 241 c 2
 20 794 l 2
 20 813 36 829 55 829 c 0
90 759 m 1
 90 270 l 1
 486 270 l 1
 486 759 l 1
 90 759 l 1
EndSplineSet
EndChar

